<?xml version="1.0" encoding="UTF-8" standalone="no"?>
<!-- Created with Inkscape (http://www.inkscape.org/) -->

<svg
   width="92.24588mm"
   height="115.12269mm"
   viewBox="0 0 92.24588 115.12269"
   version="1.1"
   id="svg5"
   inkscape:version="1.1.1 (3bf5ae0d25, 2021-09-20)"
   sodipodi:docname="UJCM_logo.svg"
   xmlns:inkscape="http://www.inkscape.org/namespaces/inkscape"
   xmlns:sodipodi="http://sodipodi.sourceforge.net/DTD/sodipodi-0.dtd"
   xmlns="http://www.w3.org/2000/svg"
   xmlns:svg="http://www.w3.org/2000/svg">
  <sodipodi:namedview
     id="namedview7"
     pagecolor="#ffffff"
     bordercolor="#666666"
     borderopacity="1.0"
     inkscape:pageshadow="2"
     inkscape:pageopacity="0.0"
     inkscape:pagecheckerboard="0"
     inkscape:document-units="mm"
     showgrid="false"
     inkscape:zoom="0.74118967"
     inkscape:cx="-115.35509"
     inkscape:cy="387.21533"
     inkscape:window-width="1920"
     inkscape:window-height="1018"
     inkscape:window-x="-6"
     inkscape:window-y="-6"
     inkscape:window-maximized="1"
     inkscape:current-layer="surface53444"
     fit-margin-top="0"
     fit-margin-left="0"
     fit-margin-right="0"
     fit-margin-bottom="0" />
  <defs
     id="defs2" />
  <g
     inkscape:label="Warstwa 1"
     inkscape:groupmode="layer"
     id="layer1"
     transform="translate(-25.985233,-45.96029)">
    <g
       id="surface53444"
       transform="matrix(0.35277778,0,0,0.35277778,-47.108668,-8.6885723)">
      <path
         style="fill:#004f9c;fill-opacity:1;fill-rule:nonzero;stroke:none"
         d="M 207.19531,154.91016 H 468.67969 V 481.24219 H 207.19531 Z m 0,0"
         id="path9"
         inkscape:export-filename="E:\Kuba_praca\Github\path9.svg"
         inkscape:export-xdpi="96"
         inkscape:export-ydpi="96" />
      <path
         style="fill:#ffffff;fill-opacity:1;fill-rule:nonzero;stroke:none"
         d="m 247.65234,205.37891 c -2.96093,-7.80079 -5.94531,-15.65235 -6.0664,-15.90235 l 0.15625,-0.18359 c 0.38672,0.125 1.07812,0.46094 2.01953,0.84765 0.92578,0.38282 2.10156,0.8125 3.47656,1.1211 1.28125,0.30078 1.71094,0.46875 2.58594,1.66797 0.55078,0.875 0.45312,2.20312 0.30469,2.95703 0.12109,0.28906 0.625,0.44531 0.85937,0.15234 0.53516,-0.92578 1,-1.83203 1.80078,-2.57031 0.88672,-0.81641 2.13281,-1.375 3.99219,-1.09766 3.06641,0.375 4.17187,4.55469 2.54297,6.04688 -0.89063,1.0625 -2.42188,2.71094 -0.49219,3.82422 l 0.043,0.18359 c -0.55469,0.81641 -2.47266,1.50781 -3.37891,0.21094 -0.46093,-0.72266 -0.51562,-1.01563 -0.33203,-1.80078 0.0547,-0.23828 0.13281,-0.53125 0.22266,-0.90625 0.0547,-1.32032 -1.45703,-1.54297 -2.1875,-1.32813 -0.61328,0.19922 -1.23047,0.92188 -1.33203,2.58203 -0.28125,3.85157 2.36328,9.59375 8.15234,8.05078 3.19141,-0.84765 3.55078,-2.36718 3.58984,-4.26562 -1.09765,-0.125 -1.95312,-1.05859 -1.95312,-2.19141 0,-1.21484 0.98828,-2.20312 2.20312,-2.20312 1.21875,0 2.20313,0.98828 2.20313,2.20312 0,0.83985 -0.46875,1.56641 -1.15625,1.94141 0.0547,0.17969 0.14453,0.40234 0.20703,0.55859 0.66797,1.53125 1.62891,2.61328 4.65234,2.34375 5.96875,-0.53125 6.48829,-6.83203 4.90625,-10.35547 -0.66015,-1.52734 -1.49218,-1.99218 -2.13281,-1.97265 -0.75781,0.0469 -2.10547,0.77734 -1.60156,2 0.27734,0.41797 0.64062,0.86328 0.82812,1.33203 0.14063,0.35937 0.1211,0.69141 -0.004,1.24609 -0.41016,1.52735 -2.44922,1.53516 -3.25,0.96094 l -0.0234,-0.19141 c 1.44922,-1.71875 -0.58594,-2.73437 -1.78516,-3.42968 -2.02734,-0.86328 -2.40625,-5.14844 0.33985,-6.54688 2.08594,-1.13281 3.84765,-0.79297 5.59765,0.54688 0.42188,0.32422 0.78907,0.65625 1.10547,0.92578 0.32422,0.19531 0.73438,-0.12891 0.75,-0.44141 -0.42187,-0.67187 -1.03906,-1.25781 -1.07422,-2.10547 -0.15234,-0.9414 0.0156,-1.91015 0.40625,-2.61328 0.4336,-0.75 1.07422,-1.38281 1.61719,-2.0625 0.64063,-0.80078 1.35938,-1.83984 2.03125,-3.42969 h 0.24219 c 0.67187,1.58985 1.38672,2.62891 2.02734,3.4336 0.53907,0.67578 1.17578,1.30859 1.61328,2.05859 0.38672,0.70703 0.5586,1.67578 0.40235,2.6211 -0.0352,0.84375 -0.65235,1.42968 -1.07031,2.09765 0.0156,0.3125 0.42578,0.63672 0.75,0.44141 0.82031,-0.69141 1.5664,-1.38281 2.57421,-1.80469 1.11329,-0.46484 2.47657,-0.5625 4.12891,0.33203 2.75391,1.40235 2.35938,5.70703 0.32031,6.55469 -1.19922,0.69141 -3.20312,1.71875 -1.76953,3.42187 l -0.0234,0.19141 c -0.80078,0.57422 -2.83984,0.56641 -3.24609,-0.96094 -0.1875,-0.83593 -0.13672,-1.1289 0.30469,-1.80468 0.13281,-0.20704 0.30469,-0.45313 0.51562,-0.77344 0.50391,-1.22266 -0.83984,-1.95313 -1.60156,-2 -0.64062,-0.0195 -1.46875,0.44531 -2.12891,1.97265 -1.58203,3.52344 -1.0625,9.82422 4.90235,10.35547 3.02734,0.26953 3.98828,-0.8125 4.65234,-2.34375 0.0664,-0.15625 0.15625,-0.38281 0.20703,-0.55859 -0.6875,-0.375 -1.15625,-1.10156 -1.15625,-1.94141 0,-1.21484 0.98828,-2.20312 2.20313,-2.20312 1.21875,0 2.20312,0.98828 2.20312,2.20312 0,1.13282 -0.85156,2.06641 -1.95312,2.19141 0.043,1.89844 0.40234,3.41797 3.59375,4.26562 5.78515,1.54297 8.43359,-4.19921 8.15234,-8.05078 -0.10156,-1.66015 -0.72265,-2.38281 -1.33203,-2.58203 -0.73047,-0.21484 -2.24609,0.008 -2.19141,1.32813 0.11719,0.48828 0.3125,1.03125 0.32032,1.53906 0.0117,0.38281 -0.1211,0.6875 -0.42578,1.16797 -0.90625,1.29687 -2.82813,0.60547 -3.37891,-0.21094 l 0.043,-0.18359 c 1.9414,-1.1211 0.3789,-2.77344 -0.50391,-3.83594 -1.61328,-1.50391 -0.5039,-5.66016 2.55469,-6.03516 2.34375,-0.35156 3.88672,0.57032 5.07031,2.42969 0.28516,0.44531 0.51172,0.87891 0.71875,1.23828 0.23828,0.29297 0.73828,0.13672 0.86328,-0.15234 -0.14843,-0.75391 -0.24609,-2.08203 0.30469,-2.95703 0.87109,-1.19922 1.30078,-1.36719 2.58594,-1.66797 1.37109,-0.3086 2.54687,-0.73828 3.47656,-1.1211 0.9375,-0.38671 1.62891,-0.72265 2.01953,-0.84765 l 0.15625,0.18359 c -0.12109,0.25 -3.10937,8.10156 -6.07031,15.90235 l -5.58594,14.75781 h -48.52734 z m 0,0"
         id="path11"
         inkscape:export-filename="E:\Kuba_praca\Github\path9.svg"
         inkscape:export-xdpi="96"
         inkscape:export-ydpi="96" />
      <path
         style="fill:#ffffff;fill-opacity:1;fill-rule:nonzero;stroke:none"
         d="m 286.5,244.90625 c 2.07031,0.67578 2.30859,1.625 2.30859,1.625 0,0 0.49219,0.0781 1.20313,-0.37109 0.22656,-0.14063 0.28906,-0.28907 0.28906,-0.28907 0,0 -1.65625,-1.30078 -3.41406,-1.74218 -1.74219,-0.4375 -1.70703,0.21093 -3,-0.14844 -0.86719,-0.23438 -1.10547,-0.48047 -1.52735,-1.17188 -0.33984,-0.55468 0.29688,-2.48437 0.29688,-2.48437 l -0.35156,-0.42578 -0.44141,1.82812 -0.0703,0.38672 -0.92578,-2.14844 -0.21875,0.52344 c 0,0 0.68359,1.79688 0.98047,2.43359 0.28906,0.60547 0.91015,1.50391 2.20312,1.75782 0.73828,0.14062 1.60547,-0.1211 2.66797,0.22656 m 11.47656,-6.55078 0.008,3.90234 3.27344,0.86719 0.0195,-4.78906 c 0.88672,-0.49219 1.66016,-1.46094 1.66016,-2.57422 0,-1.61719 -1.41406,-2.90625 -3.33594,-2.92188 -2.07031,-0.0195 -3.32422,1.32032 -3.32422,2.9336 0,1.13281 0.78125,2.09765 1.69922,2.58203 m 0.28125,60.92578 c 0,0 0.60938,0.48828 1.40625,0.48828 0.71875,0 1.33203,-0.48828 1.33203,-0.48828 l 0.0156,-6.39453 -2.79688,-0.48438 z m -54.53906,-52.61719 c 0.0469,0.082 0.23437,0.15625 0.35547,0.11719 0.93359,-0.29297 2,-0.0547 2.6914,0.46094 0.79297,0.49609 0.94922,1.16797 1.30079,2.35156 l 3.89843,-1.41797 c -0.48828,-1.13672 -0.8164,-1.74609 -0.53125,-2.63281 0.19922,-0.83594 0.86719,-1.70703 1.76563,-2.08203 0.12109,-0.0469 0.21094,-0.22657 0.19922,-0.32032 l -0.25391,-2.11718 -10.59375,3.85547 z m -1.64844,-2.53125 10.82031,-3.9375 -0.58593,-5.6875 c -0.008,-0.0859 -0.2461,-0.21094 -0.33594,0.0273 l -1.25,2.48828 -1.66406,-1.0625 c -0.10547,-0.0742 -0.35157,-0.004 -0.38282,0.1289 l -0.5664,1.89453 -3.07813,-3.01562 c -0.0547,-0.0547 -0.14453,-0.0664 -0.1875,-0.0547 -0.0391,0.0156 -0.10156,0.082 -0.10547,0.16406 l -0.41796,4.28907 -1.65235,-1.08985 c -0.10937,-0.082 -0.34375,0.0234 -0.375,0.14453 l -0.59375,1.88672 -2.55859,-1.10156 c -0.22266,-0.125 -0.32031,0.12109 -0.27344,0.19141 z m 59.04297,30.07813 -2.96484,-0.92188 0.0312,14.12891 2.82812,0.66406 z m 0.11719,-22.96094 -3.21485,-0.97656 0.0859,15.42578 3.03125,0.8789 z m 4.11719,39.17187 c -1.23438,-0.6289 -2.8125,-1.05078 -6.53516,-1.98437 -2.39844,-0.60156 -2.71875,-0.64063 -4.41797,-1.26563 -2.34375,-0.86328 -3.3125,-1.48828 -3.21875,-3.35546 0.10156,-1.97266 1.66797,-2.30079 4.26953,-1.59375 0.875,0.23828 1.25391,0.36328 1.875,0.55078 -0.008,-1.80469 0.0547,-3.17188 0.043,-4.97266 -1.98828,-0.71094 -2.40234,-0.77344 -3.33203,-0.96094 -3.38281,-0.67968 -6.61328,1.46875 -7.30078,4.94922 -0.75781,3.32031 2.00781,7.48828 6.58984,8.75781 2.53125,0.69922 3.35156,0.76172 4.64844,0.96875 1.55469,0.25 3.76953,0.64844 5.625,1.01954 1.38672,0.27734 2.54297,0.54687 3.73437,1.22265 0.64454,0.35938 1.64454,0.67969 1.50782,-0.46094 -0.082,-0.65625 -1.47266,-1.85546 -3.48828,-2.875 m -26.57422,27.02344 v -90.45703 h 40.23437 v 49.32031 c 0,22.42188 -17.92969,40.65235 -40.23437,41.13672 m -1.82813,0 c -22.30469,-0.48047 -40.23828,-18.71094 -40.23437,-41.13281 l 0.004,-49.32422 h 40.23047 z m 43.21875,-92.76953 -84.60547,0.004 h -1.15625 l -0.004,51.63281 c 0,24.00391 19.45703,43.45703 43.45703,43.45703 24.0039,0 43.46484,-19.45703 43.46484,-43.46094 v -51.6289 z m -67.70312,24.22656 -4.22266,1.53516 c -0.51953,0.19141 -0.76953,0.82812 -0.55078,1.42578 0.21484,0.59766 0.81641,0.92578 1.33984,0.73438 l 4.21875,-1.53516 c 0.52735,-0.19141 0.77344,-0.83203 0.5586,-1.42578 -0.21875,-0.59375 -0.81641,-0.92188 -1.34375,-0.73438 m 53.60937,19.98438 c -2.54687,-0.90235 -2.76172,-0.71875 -6.98828,-2 -2.34766,-0.70703 -4.15234,-1.27735 -5.55859,-1.98828 -1.15625,-0.57422 -3.29297,-1.58594 -2.70313,-3.65625 0.57422,-2.02344 2.23047,-2.02344 4.41406,-1.15625 1.19141,0.47265 1.30469,0.70312 1.92969,1.00781 v -5.75391 c -0.28906,-0.0977 -1.92578,-1.0625 -4.36719,-1.22265 -1.74218,-0.11328 -3.875,0.32422 -5.47265,1.72656 -1.48047,1.30469 -1.97656,2.79687 -2.34375,4.55469 -0.40625,1.92187 0.39062,6.04687 4.03515,8.3789 2.98047,1.90625 4.99219,2.26953 10.15235,3.86719 3.85937,1.19922 3.43359,0.88281 5.19531,1.42578 2.25781,0.70703 4.11719,1.72266 3.94141,3.76172 -0.29297,3.34766 -3.41407,2.23047 -4.53516,1.86328 -0.75,-0.24219 -0.52734,-0.1289 -1.81641,-0.59375 -0.0117,1.78516 0,3.51172 -0.0117,5.27344 0.33593,0.14062 0.92968,0.34375 2.66015,0.64062 4.54688,0.78907 8.28906,-2.1914 8.92188,-5.96093 0.32422,-1.91797 0.0742,-4.44141 -1.32422,-6.39844 -1.44531,-2.01953 -4.34766,-3.14453 -6.12891,-3.76953 m -15.1914,-26.92578 c -0.41797,0.57031 -0.80079,0.65234 -1.07032,0.67578 -0.33203,0.0273 -1.07812,-0.16797 -1.3125,-0.72266 -0.1289,-0.3125 -0.0937,-0.64453 -0.0547,-0.9375 -0.35938,-0.16015 -0.50782,-0.39453 -0.41016,-0.60156 0.0508,0.0117 0.48047,0.12891 0.63281,0.16797 0.71485,-0.1836 1.9336,0.26172 2.29688,0.87109 0.0703,0.125 0.64843,0.39844 0.70312,0.44531 -0.25781,0.51954 -0.75,0.0547 -0.78515,0.10157 m 20.66015,6.64062 c -3.01172,-2.55469 -12.91797,-5.34765 -13.29297,-5.44531 -1.34765,-0.34766 -1.78515,-0.89844 -2.09375,-1.19141 -0.78906,-0.73828 -2.54687,-1.38672 -4.21484,-1.91015 -0.55078,-0.17188 -2.52734,-0.78125 -5.16406,-0.7461 -0.57032,0.008 -1.69532,-0.37109 -2.42969,0.17188 -0.38281,0.28515 -0.61719,1.30859 -0.37109,2.10937 0.1875,0.6211 1.04687,1.38282 1.04687,1.3086 0.0352,-1.63672 2.07031,-0.55078 2.625,0.0469 0.61719,0.67578 2.5625,1.51563 2.87109,1.69141 0.625,0.34375 0.28907,1.61328 -0.15234,1.94922 -1.39062,1.05859 -3.33203,-0.39063 -4.37891,-0.76172 -0.5625,-0.19531 -1.15234,0.33594 -1.15234,0.33594 0,0 0.23047,0.30468 1.14063,0.80468 0.50781,0.28125 1.68359,0.85938 2.1914,1.04297 0.10156,0.0312 5.60156,1.8125 6.86719,0.51563 0.42578,-0.0234 1.53516,0.20703 3.66797,0.9414 1.15625,0.39844 3.15625,1.05078 4.47656,1.57422 3.30469,1.31641 5.45313,2.17188 5.05078,4.33594 -0.42187,2.31641 -2.5625,2.21875 -4.74609,1.60547 -0.31641,-0.0899 -0.78906,-0.21875 -1.33985,-0.45313 l -0.0781,6.03907 c 0.41406,0.082 1.22266,0.22656 1.97656,0.35937 6.28906,1.125 9.44141,-2.51172 10.26172,-6.4375 0.57422,-3.20703 -0.63672,-6.08984 -2.76172,-7.88672 m -62.07031,4.74219 4.98047,13.6875 2.1914,-6.01953 -3.30468,-9.07813 z m 15.26562,0.043 -3.86328,-1.42188 -11.09375,29.94532 3.86719,1.42187 z m -11.24218,30.78906 -4.21485,-1.55469 c -0.52343,-0.1914 -1.125,0.13672 -1.34375,0.73047 -0.21875,0.59375 0.0273,1.23438 0.55078,1.42578 l 4.21485,1.55469 c 0.52344,0.19141 1.125,-0.13672 1.34375,-0.73437 0.22265,-0.58985 -0.0273,-1.23047 -0.55078,-1.42188 m -7.29297,7.34375 3.97265,1.46094 2.16797,-5.89453 -3.97265,-1.46094 z m 19.76562,-8.07812 c -0.21484,-0.59766 -0.8164,-0.92579 -1.33984,-0.73438 l -4.22266,1.53906 c -0.52343,0.1875 -0.77343,0.82422 -0.55468,1.42188 0.21484,0.59375 0.8164,0.92578 1.33984,0.73437 l 4.22266,-1.53906 c 0.52343,-0.1875 0.77343,-0.82422 0.55468,-1.42187 m -1.76953,-1.47266 -4.57422,-12.5625 -2.1875,6.02344 2.89063,7.94531 z m -3.21094,-38.5 c 0.90235,0.37891 1.5625,1.25391 1.76172,2.08984 0.28516,0.89063 -0.0312,1.50391 -0.52734,2.63672 l 3.89453,1.4336 c 0.35938,-1.1836 0.49609,-1.86329 1.29297,-2.35547 0.69141,-0.50782 1.76172,-0.7461 2.69531,-0.44922 0.1211,0.0391 0.30469,-0.0352 0.35547,-0.11328 l 1.17578,-1.78516 -10.58594,-3.89062 -0.25781,2.11718 c -0.0156,0.0937 0.0742,0.26953 0.19531,0.31641 m 0.0274,7.64062 4.21484,1.55079 c 0.52735,0.1914 1.12891,-0.13282 1.34375,-0.73047 0.22266,-0.59375 -0.0234,-1.23438 -0.54687,-1.42578 l -4.21875,-1.55079 c -0.51953,-0.1914 -1.1211,0.13282 -1.33985,0.72657 -0.22265,0.59765 0.0234,1.23828 0.54688,1.42968 m 6.76172,40.46875 -2.14844,-5.90234 -3.98047,1.44922 2.14844,5.90234 z m 0.375,0.71094 -4.20703,1.52735 c -0.55469,0.20312 -0.96094,1.26171 -0.625,2.1875 0.33593,0.92968 1.28515,1.38281 1.83984,1.17578 l 4.27734,-1.55078 c 0.55469,-0.20313 0.86719,-1.21094 0.52735,-2.14063 -0.33594,-0.92578 -1.25782,-1.40234 -1.8125,-1.19922 m 7.04687,-52.88281 c 0.0469,-0.0703 -0.0508,-0.31641 -0.27344,-0.19531 l -2.5664,1.09375 -0.58594,-1.88672 c -0.0273,-0.125 -0.26172,-0.22656 -0.375,-0.14844 l -1.65234,1.08203 -0.40625,-4.28906 c -0.004,-0.0781 -0.0664,-0.14453 -0.10547,-0.16406 -0.043,-0.0117 -0.12891,0 -0.1836,0.0586 l -3.09375,3.00391 -0.55468,-1.89844 c -0.0352,-0.13281 -0.27735,-0.20313 -0.37891,-0.12891 l -1.67187,1.05469 -1.24219,-2.49219 c -0.0899,-0.23828 -0.32422,-0.11328 -0.33594,-0.0273 l -0.60547,5.68359 10.80469,3.97657 z m -25.1914,54.35937 -4.20313,-1.54296 c -0.55469,-0.20704 -1.54687,0.33593 -1.88672,1.26171 -0.34375,0.92969 0.0859,1.88672 0.64453,2.08985 l 4.26563,1.57031 c 0.55859,0.20313 1.44531,-0.36328 1.78515,-1.28906 0.34375,-0.92578 -0.0508,-1.88281 -0.60546,-2.08985"
         id="path13"
         inkscape:export-filename="E:\Kuba_praca\Github\path9.svg"
         inkscape:export-xdpi="96"
         inkscape:export-ydpi="96" />
      <path
         style="fill:#ffffff;fill-opacity:1;fill-rule:nonzero;stroke:none"
         d="m 290.30469,241.23828 c 0,0 -0.45313,-0.21094 -0.44922,-0.0859 0.0391,0.6875 -0.48828,1.08203 -0.48828,1.08203 0,0 0.26953,0.0898 0.38672,0.043 0.55078,-0.21093 0.76953,-0.88281 0.76953,-0.88281 z m 0,0"
         id="path15"
         inkscape:export-filename="E:\Kuba_praca\Github\path9.svg"
         inkscape:export-xdpi="96"
         inkscape:export-ydpi="96" />
      <path
         style="fill:#ffffff;fill-opacity:1;fill-rule:evenodd;stroke:none"
         d="m 234.30859,377.14844 c 0,4.5664 0.0234,6.89843 -1.75,8.6914 -0.46484,0.46485 -0.8164,0.72266 -1.11718,0.88672 -0.39844,0.21094 -0.51172,0.30469 -0.51172,0.41797 0,0.11719 0.0898,0.1875 0.18359,0.1875 0.11719,0 0.30469,-0.0469 0.46875,-0.14062 0.48828,-0.23047 0.85938,-0.41797 1.16406,-0.60547 2.23438,-1.375 3.47266,-2.98438 3.96094,-4.40235 0.46484,-1.30468 0.55859,-2.80078 0.55859,-4.125 0,-1.16797 -0.0703,-2.28515 -0.0703,-3.28906 v -4.30859 c 0,-3.54297 0,-4.19532 0.0469,-4.94141 0.0469,-0.8125 0.23437,-1.21094 0.86328,-1.32422 0.28125,-0.0469 0.41797,-0.0703 0.67578,-0.0703 0.27734,0 0.41797,-0.0469 0.41797,-0.21094 0,-0.16406 -0.16406,-0.21094 -0.48828,-0.21094 -0.91016,0 -2.375,0.0703 -2.9375,0.0703 -0.60547,0 -2.07032,-0.0703 -3.3086,-0.0703 -0.34765,0 -0.51172,0.0469 -0.51172,0.21094 0,0.16406 0.14063,0.21094 0.39454,0.21094 0.32812,0 0.72265,0.0234 0.91015,0.0703 0.76953,0.16016 0.95703,0.53125 1.00391,1.32422 0.0469,0.74609 0.0469,1.39844 0.0469,4.94141 z m 0,0"
         id="path17"
         inkscape:export-filename="E:\Kuba_praca\Github\path9.svg"
         inkscape:export-xdpi="96"
         inkscape:export-ydpi="96" />
      <path
         style="fill:#ffffff;fill-opacity:1;fill-rule:evenodd;stroke:none"
         d="m 252.57031,375.23828 c 0.11719,0 0.1875,0.0469 0.23438,0.16406 l 1.86328,4.9375 c 0.11719,0.28125 -0.0469,0.49219 -0.21094,0.53907 -0.23047,0.0234 -0.32422,0.0703 -0.32422,0.20703 0,0.16406 0.27735,0.16406 0.69922,0.1875 1.86328,0.0469 3.56641,0.0469 4.40625,0.0469 0.85938,0 1.07031,-0.0469 1.07031,-0.23437 0,-0.16016 -0.11718,-0.1836 -0.30468,-0.1836 -0.27735,0 -0.62891,-0.0234 -0.97657,-0.0937 -0.48828,-0.11718 -1.16797,-0.4414 -2.05078,-2.54297 -1.49219,-3.53906 -5.22265,-13.04687 -5.78125,-14.33203 -0.23047,-0.53515 -0.37109,-0.74218 -0.58203,-0.74218 -0.23047,0 -0.37109,0.25781 -0.65234,0.93359 l -5.84766,14.63281 c -0.46484,1.16406 -0.91016,1.95703 -1.98047,2.09766 -0.1875,0.0234 -0.51172,0.0469 -0.72265,0.0469 -0.1875,0 -0.28125,0.0469 -0.28125,0.1836 0,0.1875 0.14062,0.23437 0.44531,0.23437 1.21094,0 2.49219,-0.0703 2.75,-0.0703 0.71875,0 1.72265,0.0703 2.46875,0.0703 0.25781,0 0.39453,-0.0469 0.39453,-0.23437 0,-0.13672 -0.0703,-0.1836 -0.34766,-0.1836 h -0.35156 c -0.72266,0 -0.92969,-0.30468 -0.92969,-0.72656 0,-0.27734 0.11328,-0.83594 0.34766,-1.41797 l 1.25781,-3.33203 c 0.0469,-0.14062 0.0937,-0.1875 0.21094,-0.1875 z m -4.72656,-1.16406 c -0.0937,0 -0.11719,-0.0703 -0.0937,-0.16406 l 2.14062,-5.73047 c 0.0234,-0.0937 0.0703,-0.21094 0.14063,-0.21094 0.0703,0 0.0937,0.11719 0.11719,0.21094 l 2.09765,5.75 c 0.0234,0.0742 0,0.14453 -0.11718,0.14453 z m 0,0"
         id="path19"
         inkscape:export-filename="E:\Kuba_praca\Github\path9.svg"
         inkscape:export-xdpi="96"
         inkscape:export-ydpi="96" />
      <path
         style="fill:#ffffff;fill-opacity:1;fill-rule:evenodd;stroke:none"
         d="m 279.34766,377.19531 c 0,-1.16406 0,-2.09765 0.0234,-2.79687 0.0234,-0.8125 0.25782,-1.21094 0.88672,-1.32813 0.27735,-0.0469 0.44141,-0.0703 0.62891,-0.0703 0.16406,0 0.30469,-0.0469 0.30469,-0.1875 0,-0.18359 -0.16407,-0.23047 -0.46875,-0.23047 -0.76954,0 -2.00391,0.0703 -2.72657,0.0703 -0.69922,0 -2.16797,-0.0703 -3.3789,-0.0703 -0.32422,0 -0.48828,0.0469 -0.48828,0.23047 0,0.14062 0.14062,0.1875 0.35156,0.1875 0.32422,0 0.71875,0.0234 0.90625,0.0703 0.76953,0.16406 0.98047,0.53516 1.0039,1.32813 0.0234,0.69922 0.0234,1.58593 0.0234,2.75 v 2.1914 c 0,0.39453 -0.0937,0.69922 -0.44531,0.86328 -0.55859,0.25391 -1.375,0.25391 -1.98047,0.25391 -4.91406,0 -8.10937,-3.75 -8.10937,-8.75781 0,-2.86719 0.83984,-4.61719 2.14453,-5.71485 1.63281,-1.34765 3.33203,-1.4414 4.61328,-1.4414 2.63281,0 4.5,1.07031 5.19922,1.8164 0.60547,0.65235 0.71875,1.39844 0.78906,1.9375 0.0234,0.1836 0.0703,0.30079 0.23437,0.30079 0.1875,0 0.25782,-0.11719 0.25782,-0.49219 0,-2.91016 0.16015,-3.5625 0.16015,-3.82031 0,-0.16016 -0.043,-0.25391 -0.32422,-0.27735 -0.53515,-0.0234 -1.35156,-0.16406 -1.83984,-0.25781 -0.46875,-0.0898 -2.51953,-0.37109 -4.125,-0.37109 -1.95703,0 -4.03125,0.16406 -6.26953,1.51171 -2.12109,1.28516 -4.05469,3.89454 -4.05469,7.6211 0,6.42969 5.05469,9.13281 10.76563,9.13281 1.8164,0 4.10156,-0.25781 5.61718,-1.04687 0.27735,-0.16407 0.30079,-0.21094 0.30079,-0.83985 z m 0,0"
         id="path21"
         inkscape:export-filename="E:\Kuba_praca\Github\path9.svg"
         inkscape:export-xdpi="96"
         inkscape:export-ydpi="96" />
      <path
         style="fill:#ffffff;fill-opacity:1;fill-rule:evenodd;stroke:none"
         d="m 288.30078,374.56641 c 0,2.25781 0,4.09765 -0.11328,5.07421 -0.0742,0.67579 -0.21094,1.07422 -0.67578,1.16797 -0.21094,0.0469 -0.49219,0.0937 -0.83985,0.0937 -0.28125,0 -0.375,0.0664 -0.375,0.1836 0,0.16406 0.16407,0.23437 0.46875,0.23437 0.92969,0 2.39844,-0.0703 2.9336,-0.0703 0.6289,0 2.09765,0.0703 3.63672,0.0703 0.25781,0 0.4414,-0.0703 0.4414,-0.23437 0,-0.11719 -0.11718,-0.1836 -0.37109,-0.1836 -0.35156,0 -0.86328,-0.0469 -1.19141,-0.0937 -0.69922,-0.0937 -0.85937,-0.51562 -0.92968,-1.14453 -0.0937,-1 -0.0937,-2.83984 -0.0937,-5.09765 v -4.10547 c 0,-3.54297 0,-4.19532 0.0469,-4.9375 0.0469,-0.81641 0.23438,-1.21485 0.86328,-1.32813 0.27735,-0.0469 0.46485,-0.0703 0.69531,-0.0703 0.23438,0 0.375,-0.0469 0.375,-0.23438 0,-0.14062 -0.1875,-0.1875 -0.48828,-0.1875 -0.88672,0 -2.26172,0.0703 -2.84375,0.0703 -0.67578,0 -2.14453,-0.0703 -3.02734,-0.0703 -0.375,0 -0.5625,0.0469 -0.5625,0.1875 0,0.1875 0.14062,0.23438 0.375,0.23438 0.27734,0 0.58203,0.0234 0.83984,0.0898 0.51172,0.11719 0.74219,0.51172 0.78907,1.3086 0.0469,0.74218 0.0469,1.39453 0.0469,4.9375 z m 0,0"
         id="path23"
         inkscape:export-filename="E:\Kuba_praca\Github\path9.svg"
         inkscape:export-xdpi="96"
         inkscape:export-ydpi="96" />
      <path
         style="fill:#ffffff;fill-opacity:1;fill-rule:evenodd;stroke:none"
         d="m 301.28125,374.56641 c 0,2.14062 0,3.98046 -0.11719,4.96093 -0.0937,0.67578 -0.21094,1.1875 -0.67578,1.28125 -0.21094,0.0469 -0.48828,0.0937 -0.83984,0.0937 -0.27735,0 -0.3711,0.0664 -0.3711,0.1836 0,0.16406 0.16016,0.23437 0.46485,0.23437 0.93359,0 2.39843,-0.0703 2.9375,-0.0703 1.37109,0 2.93359,0.13672 6.45312,0.13672 0.88672,0 1.09375,0 1.25781,-0.60156 0.11719,-0.46875 0.30469,-2.05079 0.30469,-2.58594 0,-0.23438 0,-0.42188 -0.1875,-0.42188 -0.16406,0 -0.21094,0.0937 -0.2539,0.35157 -0.16407,0.95312 -0.44532,1.44531 -1.05079,1.72265 -0.60546,0.28125 -1.58593,0.28125 -2.1914,0.28125 -2.375,0 -2.75,-0.34765 -2.79688,-1.96094 -0.0234,-0.67187 0,-2.8164 0,-3.60546 v -1.84766 c 0,-0.13672 0.0234,-0.23047 0.14063,-0.23047 0.55859,0 2.86719,0.0234 3.30859,0.0703 0.86328,0.0937 1.1875,0.44141 1.30469,0.90625 0.0703,0.30469 0.0703,0.60938 0.0937,0.83985 0,0.11718 0.0469,0.21093 0.21094,0.21093 0.21093,0 0.21093,-0.25781 0.21093,-0.4414 0,-0.16406 0.0469,-1.09766 0.0937,-1.5625 0.0664,-1.1875 0.1836,-1.5625 0.1836,-1.70313 0,-0.14062 -0.0703,-0.18359 -0.16016,-0.18359 -0.11719,0 -0.21094,0.11719 -0.375,0.30078 -0.21094,0.23438 -0.55859,0.30469 -1.11719,0.35156 -0.53515,0.0469 -3.21875,0.0469 -3.73046,0.0469 -0.14063,0 -0.16407,-0.0937 -0.16407,-0.25781 v -5.89454 c 0,-0.16406 0.0469,-0.23437 0.16407,-0.23437 0.46484,0 2.91406,0.0508 3.30859,0.0937 1.16406,0.14062 1.39844,0.42187 1.5625,0.83984 0.11719,0.27735 0.14062,0.67578 0.14062,0.83985 0,0.20703 0.0469,0.32422 0.21094,0.32422 0.16016,0 0.20703,-0.14063 0.23047,-0.25391 0.0469,-0.28125 0.0937,-1.30859 0.11719,-1.53906 0.0703,-1.07422 0.1875,-1.35157 0.1875,-1.51563 0,-0.11328 -0.0234,-0.21094 -0.14063,-0.21094 -0.11718,0 -0.25781,0.0703 -0.375,0.0977 -0.18359,0.0469 -0.55859,0.0898 -1,0.13672 -0.44531,0.0234 -5.08203,0.0234 -5.82422,0.0234 -0.65625,0 -2.12109,-0.0703 -3.35937,-0.0703 -0.34766,0 -0.51172,0.0469 -0.51172,0.21094 0,0.16406 0.14063,0.21094 0.39844,0.21094 0.32422,0 0.72265,0.0234 0.90625,0.0703 0.76953,0.16016 0.95703,0.53125 1.0039,1.32813 0.0469,0.74218 0.0469,1.39453 0.0469,4.9375 z m 0,0"
         id="path25"
         inkscape:export-filename="E:\Kuba_praca\Github\path9.svg"
         inkscape:export-xdpi="96"
         inkscape:export-ydpi="96" />
      <path
         style="fill:#ffffff;fill-opacity:1;fill-rule:evenodd;stroke:none"
         d="m 321.36719,370.46094 c 0,-3.54297 0,-4.19532 0.0469,-4.9375 0.0469,-0.82032 0.23438,-1.21485 0.86328,-1.33203 0.27735,-0.043 0.65235,-0.0703 0.91016,-0.0703 0.27734,0 0.41797,-0.0469 0.41797,-0.20703 0,-0.16406 -0.16406,-0.21094 -0.48828,-0.21094 -0.91016,0 -2.60938,0.0703 -3.17188,0.0703 -0.6289,0 -2.09765,-0.0703 -3.1914,-0.0703 -0.34766,0 -0.51172,0.0469 -0.51172,0.21094 0,0.16016 0.14062,0.20703 0.39453,0.20703 0.30469,0 0.58203,0.0274 0.76953,0.0703 0.76953,0.16406 0.95703,0.53906 1,1.33203 0.0508,0.74218 0.0508,1.39453 0.0508,4.9375 v 4.10547 c 0,2.14062 0,3.98046 -0.11719,4.96093 -0.0937,0.67188 -0.21093,1.1875 -0.67578,1.28125 -0.21094,0.0469 -0.48828,0.0937 -0.83984,0.0937 -0.27735,0 -0.3711,0.0703 -0.3711,0.1836 0,0.16406 0.16016,0.23437 0.46485,0.23437 0.92969,0 2.39844,-0.0703 2.93359,-0.0703 1.89063,0 3.42578,0.14062 6.78125,0.14062 1.21485,0 1.33203,-0.11718 1.46875,-0.6289 0.1875,-0.67578 0.35156,-2.42188 0.35156,-2.6836 0,-0.27734 -0.0234,-0.39453 -0.1875,-0.39453 -0.1875,0 -0.23437,0.14063 -0.2539,0.35157 -0.0469,0.44531 -0.32813,1.09375 -0.60938,1.39843 -0.58203,0.62891 -1.48828,0.65235 -2.72656,0.65235 -1.81641,0 -2.42187,-0.16407 -2.82031,-0.51563 -0.48828,-0.41797 -0.48828,-2.02734 -0.48828,-5.0039 z m 0,0"
         id="path27"
         inkscape:export-filename="E:\Kuba_praca\Github\path9.svg"
         inkscape:export-xdpi="96"
         inkscape:export-ydpi="96" />
      <path
         style="fill:#ffffff;fill-opacity:1;fill-rule:evenodd;stroke:none"
         d="m 337.91797,370.46094 c 0,-3.54297 0,-4.19532 0.0469,-4.9375 0.0469,-0.82032 0.23047,-1.21485 0.85938,-1.33203 0.28125,-0.043 0.65625,-0.0703 0.91015,-0.0703 0.28125,0 0.41797,-0.0469 0.41797,-0.20703 0,-0.16406 -0.16015,-0.21094 -0.48828,-0.21094 -0.91015,0 -2.60937,0.0703 -3.16797,0.0703 -0.6289,0 -2.09765,-0.0703 -3.1914,-0.0703 -0.35157,0 -0.51563,0.0469 -0.51563,0.21094 0,0.16016 0.14063,0.20703 0.39844,0.20703 0.30078,0 0.58203,0.0274 0.76953,0.0703 0.76953,0.16406 0.95313,0.53906 1,1.33203 0.0469,0.74218 0.0469,1.39453 0.0469,4.9375 v 4.10547 c 0,2.14062 0,3.98046 -0.11719,4.96093 -0.0937,0.67188 -0.20703,1.1875 -0.67578,1.28125 -0.20703,0.0469 -0.48828,0.0937 -0.83985,0.0937 -0.27734,0 -0.37109,0.0703 -0.37109,0.1836 0,0.16406 0.16406,0.23437 0.46484,0.23437 0.9336,0 2.40235,-0.0703 2.9375,-0.0703 1.88672,0 3.42578,0.14062 6.78125,0.14062 1.21094,0 1.32813,-0.11718 1.46875,-0.6289 0.1875,-0.67578 0.34766,-2.42188 0.34766,-2.6836 0,-0.27734 -0.0234,-0.39453 -0.18359,-0.39453 -0.1875,0 -0.23438,0.14063 -0.25782,0.35157 -0.0469,0.44531 -0.32812,1.09375 -0.60547,1.39843 -0.58203,0.62891 -1.49218,0.65235 -2.72656,0.65235 -1.8164,0 -2.42578,-0.16407 -2.82031,-0.51563 -0.48828,-0.41797 -0.48828,-2.02734 -0.48828,-5.0039 z m 0,0"
         id="path29"
         inkscape:export-filename="E:\Kuba_praca\Github\path9.svg"
         inkscape:export-xdpi="96"
         inkscape:export-ydpi="96" />
      <path
         style="fill:#ffffff;fill-opacity:1;fill-rule:evenodd;stroke:none"
         d="m 358.40234,381.64844 c 5.92188,0 9.64844,-4.22266 9.64844,-9.55469 0,-5.33984 -3.60937,-8.71484 -9.41406,-8.71484 -6.99219,0 -9.625,5.14843 -9.625,9.13281 0,4.125 2.70703,9.13672 9.39062,9.13672 m 0.98047,-1.16797 c -4.47656,0 -7.15234,-3.84375 -7.15234,-8.6875 0,-5.80469 3.05078,-7.29688 5.73047,-7.29688 3.82031,0 6.82812,3.23828 6.82812,8.45703 0,6.73829 -3.77344,7.52735 -5.40625,7.52735"
         id="path31"
         inkscape:export-filename="E:\Kuba_praca\Github\path9.svg"
         inkscape:export-xdpi="96"
         inkscape:export-ydpi="96" />
      <path
         style="fill:#ffffff;fill-opacity:1;fill-rule:evenodd;stroke:none"
         d="m 385.76172,358.60156 c -0.11719,-0.21094 -0.16406,-0.28125 -0.32422,-0.28125 -0.0703,0 -0.23438,0.0469 -0.46875,0.21094 -0.37109,0.23047 -2.81641,2.05078 -3.75,2.93359 -0.11719,0.11719 -0.21094,0.21094 -0.21094,0.30469 0,0.0937 0.0937,0.14063 0.14063,0.14063 0.0469,0 0.21093,-0.0937 0.39843,-0.1875 0.85938,-0.46875 2.70313,-1.21094 3.98438,-1.375 0.46484,-0.0469 0.67578,0 0.79297,0 0.11328,0 0.2539,-0.0703 0.11328,-0.35157 -0.27734,-0.625 -0.48828,-1.07031 -0.67578,-1.39453 m -9.10938,9.76172 h 0.0703 c 0.41796,0.44141 3.0039,3.35547 5.54296,5.875 2.42579,2.39844 5.41016,5.45313 6.875,6.84766 0.25782,0.25781 0.53907,0.51172 0.79297,0.51172 0.21094,0 0.30469,-0.21094 0.30469,-0.72266 l 0.25391,-14.70313 c 0.0234,-1.30468 0.21093,-1.79296 0.86328,-1.97656 0.28125,-0.0742 0.46484,-0.0742 0.69922,-0.0742 0.28125,0 0.41797,-0.0664 0.41797,-0.20703 0,-0.1875 -0.23047,-0.21094 -0.53516,-0.21094 -1.14063,0 -2.02734,0.0703 -2.28125,0.0703 -0.49219,0 -1.60938,-0.0703 -2.82031,-0.0703 -0.35157,0 -0.60547,0.0234 -0.60547,0.21094 0,0.14063 0.0937,0.20703 0.37109,0.20703 0.32813,0 0.88672,0 1.23438,0.14063 0.55859,0.23437 0.76953,0.67578 0.79297,2.09765 l 0.23437,10.46485 h -0.11719 c -0.39843,-0.375 -3.54297,-3.73047 -5.125,-5.31641 -3.40234,-3.3789 -6.94531,-7.17578 -7.22656,-7.47656 -0.39453,-0.41797 -0.60547,-0.72656 -0.86328,-0.72656 -0.23047,0 -0.30078,0.32812 -0.30078,0.79297 l -0.21094,13.79687 c -0.0234,2.02734 -0.11719,2.70313 -0.72266,2.89063 -0.32421,0.0898 -0.74609,0.11718 -1.04687,0.11718 -0.23438,0 -0.37109,0.0469 -0.37109,0.1836 0,0.21093 0.20703,0.23437 0.51171,0.23437 1.21094,0 2.30469,-0.0703 2.51563,-0.0703 0.44141,0 1.375,0.0703 2.89062,0.0703 0.32422,0 0.53516,-0.0469 0.53516,-0.23437 0,-0.13672 -0.14062,-0.1836 -0.39844,-0.1836 -0.37109,0 -0.8125,-0.0273 -1.21093,-0.16406 -0.46485,-0.16406 -0.76954,-0.76953 -0.81641,-2.58594 z m 0,0"
         id="path33"
         inkscape:export-filename="E:\Kuba_praca\Github\path9.svg"
         inkscape:export-xdpi="96"
         inkscape:export-ydpi="96" />
      <path
         style="fill:#ffffff;fill-opacity:1;fill-rule:evenodd;stroke:none"
         d="m 402.24219,381.64844 c 1.23437,0 2.53906,-0.21094 3.70312,-0.95703 1.67969,-1.09766 2.19141,-2.70313 2.19141,-4.05469 0,-2.21485 -1.02735,-3.77344 -3.82422,-5.94141 l -0.65234,-0.49219 c -1.9336,-1.46484 -2.46875,-2.28125 -2.46875,-3.35546 0,-1.39454 1.05078,-2.39844 2.77343,-2.39844 1.51563,0 2.19141,0.69922 2.53907,1.14062 0.48828,0.60938 0.60546,1.32813 0.60546,1.53907 0,0.28125 0.0703,0.41796 0.23438,0.41796 0.1875,0 0.25781,-0.18359 0.25781,-0.69921 0,-1.81641 0.0937,-2.49219 0.0937,-2.79297 0,-0.16407 -0.11719,-0.23438 -0.32812,-0.28125 -0.60547,-0.16016 -1.58594,-0.39453 -3.10157,-0.39453 -3.23828,0 -5.38281,1.83593 -5.38281,4.40234 0,1.88672 0.88672,3.51953 3.44922,5.52344 l 1.07422,0.83593 c 1.93359,1.49219 2.28125,2.58985 2.28125,3.73047 0,1.23438 -1.02344,2.65625 -3.12109,2.65625 -1.44532,0 -2.82032,-0.6289 -3.33204,-2.35547 -0.11718,-0.39453 -0.21093,-0.88281 -0.21093,-1.1875 0,-0.1875 -0.0234,-0.39453 -0.23047,-0.39453 -0.1875,0 -0.25781,0.25391 -0.28125,0.60547 -0.0234,0.375 -0.11719,1.76953 -0.11719,3.05469 0,0.51172 0.0703,0.625 0.44531,0.78906 1,0.44531 2.05078,0.60938 3.40235,0.60938"
         id="path35"
         inkscape:export-filename="E:\Kuba_praca\Github\path9.svg"
         inkscape:export-xdpi="96"
         inkscape:export-ydpi="96" />
      <path
         style="fill:#ffffff;fill-opacity:1;fill-rule:evenodd;stroke:none"
         d="m 418.96875,370.46094 c 0,-3.54297 0,-4.19532 0.0469,-4.9375 0.0469,-0.82032 0.23438,-1.21485 0.86329,-1.33203 0.27734,-0.043 0.41796,-0.0703 0.65234,-0.0703 0.1875,0 0.32422,-0.0469 0.32422,-0.20703 0,-0.16406 -0.16016,-0.21094 -0.48828,-0.21094 -0.79297,0 -2.26172,0.0703 -2.82032,0.0703 -0.55859,0 -2.02734,-0.0703 -3.26171,-0.0703 -0.35157,0 -0.51172,0.0469 -0.51172,0.21094 0,0.16016 0.14062,0.20703 0.39453,0.20703 0.32812,0 0.72265,0.0274 0.91015,0.0703 0.76954,0.16406 0.95313,0.53906 1,1.33203 0.0469,0.74218 0.0469,1.39453 0.0469,4.9375 v 4.10547 c 0,2.14062 0,3.98046 -0.11328,4.96093 -0.0937,0.67188 -0.21094,1.1875 -0.67969,1.28125 -0.20703,0.0469 -0.48828,0.0937 -0.83594,0.0937 -0.28125,0 -0.375,0.0703 -0.375,0.1836 0,0.16406 0.16407,0.23437 0.46875,0.23437 0.92969,0 2.39844,-0.0703 2.9336,-0.0703 0.58203,0 2.05078,0.0703 3.35547,0.0703 0.25781,0 0.4414,-0.0703 0.4414,-0.23437 0,-0.11328 -0.11328,-0.1836 -0.30078,-0.1836 -0.30078,0 -0.81641,-0.0469 -1.14062,-0.0937 -0.58204,-0.0937 -0.79297,-0.60937 -0.83985,-1.25781 -0.0703,-1.00391 -0.0703,-2.84375 -0.0703,-4.98437 v -2.125 h 0.11719 l 0.25781,0.34765 c 0.48828,0.67969 5.07812,6.0625 6.10156,6.96875 1.00391,0.88672 1.63281,1.39844 2.89063,1.51563 0.48828,0.0469 0.91015,0.0469 1.60937,0.0469 h 2.02735 c 0.44531,0 0.55859,-0.0703 0.55859,-0.23437 0,-0.14063 -0.14063,-0.1836 -0.30469,-0.1836 -0.27734,0 -0.74219,-0.0742 -1.44531,-0.35156 -1.25781,-0.48828 -2.30469,-1.53516 -3.32813,-2.51562 -0.91015,-0.86329 -5.48046,-5.77735 -6.3164,-6.875 0.79297,-0.83985 4.30859,-4.33594 5.03515,-5.03516 1,-0.97656 1.79297,-1.46875 2.51172,-1.74609 0.44532,-0.16016 1.02735,-0.25782 1.35547,-0.25782 0.23047,0 0.34766,-0.0469 0.34766,-0.20703 0,-0.16406 -0.16406,-0.21094 -0.39453,-0.21094 -0.72266,0 -2.00391,0.0703 -2.72657,0.0703 -0.6289,0 -1.91406,-0.0703 -2.40234,-0.0703 -0.25391,0 -0.37109,0.0469 -0.37109,0.21094 0,0.14063 0.0937,0.1875 0.30468,0.23438 0.23047,0.043 0.32422,0.20703 0.32422,0.46484 0,0.39453 -0.51172,0.97656 -1.16406,1.74609 -0.67969,0.79297 -4.07812,4.26563 -4.87109,5.125 h -0.11719 z m 0,0"
         id="path37"
         inkscape:export-filename="E:\Kuba_praca\Github\path9.svg"
         inkscape:export-xdpi="96"
         inkscape:export-ydpi="96" />
      <path
         style="fill:#ffffff;fill-opacity:1;fill-rule:evenodd;stroke:none"
         d="m 436.46875,374.56641 c 0,2.25781 0,4.09765 -0.11328,5.07421 -0.0742,0.67579 -0.21094,1.07422 -0.67969,1.16797 -0.21094,0.0469 -0.48828,0.0937 -0.83594,0.0937 -0.28125,0 -0.375,0.0664 -0.375,0.1836 0,0.16406 0.16407,0.23437 0.46485,0.23437 0.93359,0 2.40234,-0.0703 2.9375,-0.0703 0.6289,0 2.09765,0.0703 3.63281,0.0703 0.25781,0 0.44531,-0.0703 0.44531,-0.23437 0,-0.11719 -0.11719,-0.1836 -0.37109,-0.1836 -0.35156,0 -0.86719,-0.0469 -1.19141,-0.0937 -0.69531,-0.0937 -0.85937,-0.51562 -0.93359,-1.14453 -0.0899,-1 -0.0899,-2.83984 -0.0899,-5.09765 v -4.10547 c 0,-3.54297 0,-4.19532 0.0469,-4.9375 0.043,-0.81641 0.23437,-1.21485 0.86328,-1.32813 0.27734,-0.0469 0.46484,-0.0703 0.69531,-0.0703 0.23438,0 0.375,-0.0469 0.375,-0.23438 0,-0.14062 -0.1875,-0.1875 -0.48828,-0.1875 -0.88672,0 -2.26172,0.0703 -2.84375,0.0703 -0.67578,0 -2.14453,-0.0703 -3.03125,-0.0703 -0.37109,0 -0.55859,0.0469 -0.55859,0.1875 0,0.1875 0.14062,0.23438 0.375,0.23438 0.27734,0 0.58203,0.0234 0.83594,0.0898 0.51562,0.11719 0.74609,0.51172 0.79296,1.3086 0.0469,0.74218 0.0469,1.39453 0.0469,4.9375 z m 0,0"
         id="path39"
         inkscape:export-filename="E:\Kuba_praca\Github\path9.svg"
         inkscape:export-xdpi="96"
         inkscape:export-ydpi="96" />
      <path
         style="fill:#ffffff;fill-opacity:1;fill-rule:evenodd;stroke:none"
         d="m 233.87891,343.29687 c 0,3.38282 0.88671,5.10547 2.07812,6.17969 1.69922,1.53906 3.9375,1.60547 5.17188,1.60547 1.51171,0 3.1914,-0.25781 4.84375,-1.67969 1.96093,-1.67578 2.21484,-4.42578 2.21484,-7.01172 v -2.49218 c 0,-3.54297 0,-4.19532 0.0469,-4.94141 0.0469,-0.81641 0.23438,-1.21484 0.86329,-1.32812 0.28125,-0.0469 0.41796,-0.0703 0.67578,-0.0703 0.27734,0 0.41797,-0.0469 0.41797,-0.21093 0,-0.16016 -0.16016,-0.21094 -0.48829,-0.21094 -0.91015,0 -2.375,0.0703 -2.65625,0.0703 -0.0234,0 -1.49218,-0.0703 -2.67968,-0.0703 -0.32422,0 -0.48828,0.0508 -0.48828,0.21094 0,0.16406 0.13671,0.21093 0.39453,0.21093 0.25781,0 0.65234,0.0234 0.83984,0.0703 0.76953,0.16015 0.95703,0.53515 1,1.32812 0.0469,0.74609 0.0469,1.39844 0.0469,4.94141 v 2.91015 c 0,2.39844 -0.0703,4.5 -1.35157,5.78125 -0.92968,0.92969 -2.1875,1.25782 -3.21484,1.25782 -0.79297,0 -1.86328,-0.0937 -2.91406,-0.95704 -1.14063,-0.92968 -1.81641,-2.35156 -1.81641,-5.73437 v -3.25781 c 0,-3.54297 0,-4.19532 0.0469,-4.94141 0.0469,-0.81641 0.23046,-1.21484 0.86328,-1.32812 0.27734,-0.0469 0.41797,-0.0703 0.67578,-0.0703 0.23047,0 0.37109,-0.0469 0.37109,-0.21093 0,-0.16016 -0.16406,-0.21094 -0.51172,-0.21094 -0.83984,0 -2.30859,0.0703 -2.86718,0.0703 -0.69922,0 -2.16407,-0.0703 -3.40235,-0.0703 -0.34765,0 -0.51172,0.0508 -0.51172,0.21094 0,0.16406 0.14063,0.21093 0.39453,0.21093 0.32813,0 0.72266,0.0234 0.91016,0.0703 0.76953,0.16015 0.95703,0.53515 1,1.32812 0.0469,0.74609 0.0469,1.39844 0.0469,4.94141 z m 0,0"
         id="path41"
         inkscape:export-filename="E:\Kuba_praca\Github\path9.svg"
         inkscape:export-xdpi="96"
         inkscape:export-ydpi="96" />
      <path
         style="fill:#ffffff;fill-opacity:1;fill-rule:evenodd;stroke:none"
         d="m 258.23437,337.79687 h 0.0664 c 0.42188,0.44532 3.00781,3.35938 5.54688,5.875 2.42578,2.39844 5.40625,5.45313 6.875,6.85157 0.25781,0.2539 0.53515,0.51172 0.79296,0.51172 0.21094,0 0.30079,-0.21094 0.30079,-0.72266 l 0.25781,-14.70313 c 0.0234,-1.30468 0.20703,-1.79296 0.86328,-1.98046 0.27734,-0.0703 0.46484,-0.0703 0.69922,-0.0703 0.27734,0 0.41797,-0.0703 0.41797,-0.21093 0,-0.1875 -0.23438,-0.21094 -0.53516,-0.21094 -1.14453,0 -2.02734,0.0703 -2.28516,0.0703 -0.48828,0 -1.60546,-0.0703 -2.82031,-0.0703 -0.34765,0 -0.60547,0.0234 -0.60547,0.21094 0,0.14062 0.0937,0.21093 0.375,0.21093 0.32422,0 0.88282,0 1.23438,0.14063 0.55859,0.23437 0.76953,0.67578 0.79297,2.09375 l 0.23047,10.46875 h -0.11719 c -0.39453,-0.375 -3.53906,-3.73047 -5.125,-5.31641 -3.40235,-3.3789 -6.94141,-7.17578 -7.22266,-7.48047 -0.39844,-0.41797 -0.60547,-0.72265 -0.86328,-0.72265 -0.23437,0 -0.30078,0.32812 -0.30078,0.79297 l -0.21094,13.79296 c -0.0234,2.03125 -0.11719,2.70313 -0.72265,2.89063 -0.32422,0.0937 -0.7461,0.11719 -1.04688,0.11719 -0.23437,0 -0.375,0.0469 -0.375,0.1875 0,0.21093 0.21094,0.23047 0.51172,0.23047 1.21094,0 2.30859,-0.0664 2.51562,-0.0664 0.44532,0 1.375,0.0664 2.89063,0.0664 0.32812,0 0.53516,-0.0469 0.53516,-0.23047 0,-0.14063 -0.13672,-0.1875 -0.39454,-0.1875 -0.37109,0 -0.8164,-0.0234 -1.21093,-0.16407 -0.46485,-0.16015 -0.76953,-0.76953 -0.81641,-2.58593 z m 0,0"
         id="path43"
         inkscape:export-filename="E:\Kuba_praca\Github\path9.svg"
         inkscape:export-xdpi="96"
         inkscape:export-ydpi="96" />
      <path
         style="fill:#ffffff;fill-opacity:1;fill-rule:evenodd;stroke:none"
         d="m 281.69922,343.99609 c 0,2.26563 0,4.10547 -0.11328,5.08203 -0.0703,0.67579 -0.21094,1.07032 -0.67969,1.16407 -0.20703,0.0469 -0.48828,0.0937 -0.83594,0.0937 -0.28125,0 -0.375,0.0703 -0.375,0.1875 0,0.16015 0.16406,0.23437 0.46485,0.23437 0.93359,0 2.40234,-0.0742 2.9375,-0.0742 0.6289,0 2.09765,0.0742 3.63671,0.0742 0.25782,0 0.44141,-0.0742 0.44141,-0.23437 0,-0.11719 -0.11719,-0.1875 -0.37109,-0.1875 -0.35157,0 -0.86328,-0.0469 -1.1875,-0.0937 -0.70313,-0.0937 -0.86328,-0.51172 -0.9336,-1.14063 -0.0937,-1 -0.0937,-2.83984 -0.0937,-5.10547 v -4.10156 c 0,-3.53906 0,-4.19141 0.0469,-4.9375 0.0469,-0.81641 0.23437,-1.21484 0.86328,-1.32812 0.27734,-0.0469 0.46484,-0.0703 0.69922,-0.0703 0.23047,0 0.37109,-0.0469 0.37109,-0.23437 0,-0.14063 -0.1875,-0.1875 -0.48828,-0.1875 -0.88672,0 -2.26172,0.0742 -2.84375,0.0742 -0.67578,0 -2.14453,-0.0742 -3.03125,-0.0742 -0.37109,0 -0.55859,0.0469 -0.55859,0.1875 0,0.1875 0.14062,0.23437 0.375,0.23437 0.27734,0 0.58203,0.0234 0.83984,0.0899 0.51172,0.12109 0.74609,0.51562 0.79297,1.30859 0.043,0.74609 0.043,1.39844 0.043,4.9375 z m 0,0"
         id="path45"
         inkscape:export-filename="E:\Kuba_praca\Github\path9.svg"
         inkscape:export-xdpi="96"
         inkscape:export-ydpi="96" />
      <path
         style="fill:#ffffff;fill-opacity:1;fill-rule:evenodd;stroke:none"
         d="m 297.54297,350.21875 c 0.1875,0.60547 0.30469,0.86328 0.53906,0.86328 0.27734,0 0.39453,-0.27734 0.83594,-1.23437 1.0039,-2.14454 4.10547,-10.39454 4.54687,-11.58204 h 0.0469 l 4.84765,11.67579 c 0.34766,0.86328 0.48829,1.14062 0.71875,1.14062 0.30469,0 0.42188,-0.27734 0.67969,-1.09375 1.14063,-3.49609 3.58594,-10.90625 4.65625,-13.84375 0.49219,-1.32812 0.75,-2.25781 1.3086,-2.46875 0.2539,-0.0937 0.58203,-0.11719 0.8125,-0.11719 0.21093,0 0.32812,-0.0703 0.32812,-0.23437 0,-0.13672 -0.16406,-0.1875 -0.41797,-0.1875 -0.76953,0 -1.77344,0.0703 -1.9375,0.0703 -0.20703,0 -1.1875,-0.0703 -2.42187,-0.0703 -0.35157,0 -0.53516,0.0508 -0.53516,0.21094 0,0.14062 0.16406,0.21093 0.39453,0.21093 0.91016,0 1.1211,0.32813 1.1211,0.69922 0,0.32813 -0.0703,0.81641 -0.23438,1.35156 -0.81641,2.72657 -2.67969,8.87891 -3.09766,10.44141 h -0.0703 l -4.84765,-11.72266 c -0.30469,-0.74609 -0.41797,-1.09765 -0.67579,-1.09765 -0.1875,0 -0.32812,0.1875 -0.58203,0.83984 l -4.52343,12.14063 h -0.0703 c -0.41797,-1.30469 -2.58593,-8.36328 -2.98047,-9.90235 -0.28125,-1.04687 -0.51171,-1.83984 -0.51171,-2.14453 0,-0.25781 0.0469,-0.42187 0.2539,-0.51172 0.16406,-0.0937 0.39844,-0.0937 0.58203,-0.0937 0.23438,0 0.42188,-0.0234 0.42188,-0.21093 0,-0.14063 -0.16406,-0.21094 -0.49219,-0.21094 -1.34766,0 -2.375,0.0703 -2.58594,0.0703 -0.20703,0 -1.49218,-0.0703 -2.70312,-0.0703 -0.32422,0 -0.51172,0.0508 -0.51172,0.21094 0,0.1875 0.14062,0.21093 0.375,0.21093 0.20703,0 0.67187,0.0469 0.92969,0.21094 0.32812,0.23047 0.58203,0.79297 0.86328,1.65234 z m 0,0"
         id="path47"
         inkscape:export-filename="E:\Kuba_praca\Github\path9.svg"
         inkscape:export-xdpi="96"
         inkscape:export-ydpi="96" />
      <path
         style="fill:#ffffff;fill-opacity:1;fill-rule:evenodd;stroke:none"
         d="m 322.41797,343.99609 c 0,2.14844 0,3.98438 -0.11719,4.96485 -0.0937,0.67578 -0.21094,1.1875 -0.67578,1.28125 -0.21094,0.0469 -0.48828,0.0937 -0.83984,0.0937 -0.27735,0 -0.3711,0.0703 -0.3711,0.1875 0,0.16015 0.16016,0.23437 0.46485,0.23437 0.93359,0 2.39843,-0.0742 2.9375,-0.0742 1.375,0 2.93359,0.14063 6.45312,0.14063 0.88672,0 1.09375,0 1.25781,-0.60547 0.11719,-0.46484 0.30469,-2.05078 0.30469,-2.58594 0,-0.23437 0,-0.41797 -0.1875,-0.41797 -0.16406,0 -0.21094,0.0937 -0.25391,0.34766 -0.16406,0.95703 -0.44531,1.44531 -1.05078,1.72266 -0.60547,0.28125 -1.58593,0.28125 -2.1914,0.28125 -2.375,0 -2.75,-0.34766 -2.79688,-1.95704 -0.0234,-0.67578 0,-2.82031 0,-3.61328 v -1.83984 c 0,-0.13672 0.0234,-0.23047 0.14063,-0.23047 0.55859,0 2.86718,0.0195 3.30859,0.0664 0.86328,0.0976 1.1875,0.44531 1.30469,0.91015 0.0703,0.30078 0.0703,0.60547 0.0937,0.83985 0,0.11718 0.0469,0.20703 0.21094,0.20703 0.20703,0 0.20703,-0.25391 0.20703,-0.44141 0,-0.16015 0.0469,-1.09375 0.0937,-1.5625 0.0703,-1.1875 0.1875,-1.55859 0.1875,-1.69922 0,-0.14062 -0.0703,-0.1875 -0.16407,-0.1875 -0.11718,0 -0.20703,0.11719 -0.37109,0.30469 -0.21094,0.23438 -0.55859,0.30078 -1.11719,0.35156 -0.53515,0.043 -3.21875,0.043 -3.73047,0.043 -0.14062,0 -0.16406,-0.0937 -0.16406,-0.2539 v -5.89844 c 0,-0.16016 0.0469,-0.23047 0.16406,-0.23047 0.46485,0 2.91407,0.0469 3.3086,0.0937 1.16406,0.13672 1.39844,0.41797 1.5625,0.83984 0.11719,0.27735 0.14062,0.67188 0.14062,0.83594 0,0.21094 0.0469,0.32813 0.20703,0.32813 0.16407,0 0.21094,-0.14454 0.23438,-0.25782 0.0469,-0.28125 0.0937,-1.30468 0.11719,-1.53906 0.0703,-1.07031 0.1875,-1.35156 0.1875,-1.51562 0,-0.11329 -0.0234,-0.20704 -0.14063,-0.20704 -0.11719,0 -0.25781,0.0664 -0.375,0.0937 -0.18359,0.0469 -0.55859,0.0899 -1,0.13672 -0.44531,0.0274 -5.08203,0.0274 -5.82422,0.0274 -0.65625,0 -2.12109,-0.0742 -3.35937,-0.0742 -0.34766,0 -0.51172,0.0469 -0.51172,0.21094 0,0.16406 0.14062,0.21093 0.39844,0.21093 0.32422,0 0.72265,0.0234 0.90625,0.0703 0.76953,0.16015 0.95703,0.53515 1.0039,1.32812 0.0469,0.74609 0.0469,1.39844 0.0469,4.9375 z m 0,0"
         id="path49"
         inkscape:export-filename="E:\Kuba_praca\Github\path9.svg"
         inkscape:export-xdpi="96"
         inkscape:export-ydpi="96" />
      <path
         style="fill:#ffffff;fill-opacity:1;fill-rule:evenodd;stroke:none"
         d="m 339.59375,343.99609 c 0,2.14844 0,3.98438 -0.11719,4.96485 -0.0937,0.67578 -0.21094,1.1875 -0.67578,1.28125 -0.21094,0.0469 -0.49219,0.0937 -0.83984,0.0937 -0.28125,0 -0.3711,0.0703 -0.3711,0.1875 0,0.16015 0.16016,0.23437 0.46485,0.23437 0.92968,0 2.39843,-0.0742 2.84375,-0.0742 0.34765,0 2.07422,0.0742 3.42578,0.0742 0.30078,0 0.46484,-0.0742 0.46484,-0.23437 0,-0.11719 -0.0937,-0.1875 -0.28125,-0.1875 -0.27734,0 -0.78906,-0.0469 -1.14062,-0.0937 -0.69922,-0.0937 -0.83985,-0.60547 -0.91016,-1.28125 -0.11719,-0.98047 -0.11719,-2.81641 -0.11719,-4.98438 v -0.32812 c 0,-0.14063 0.0703,-0.1836 0.1875,-0.1836 l 2.02735,0.043 c 0.16406,0 0.30468,0.0234 0.42187,0.16406 0.30078,0.34766 1.3711,1.9336 2.30469,3.21875 1.30469,1.79297 2.19141,2.88672 3.19141,3.42188 0.60937,0.32812 1.1914,0.44531 2.49609,0.44531 h 2.21094 c 0.28125,0 0.44531,-0.0469 0.44531,-0.23437 0,-0.11719 -0.0937,-0.1875 -0.28125,-0.1875 -0.18359,0 -0.39453,-0.0234 -0.65234,-0.0703 -0.34766,-0.0703 -1.30469,-0.23437 -2.60938,-1.58203 -1.375,-1.44922 -2.98437,-3.51953 -5.05859,-6.1289 2.35547,-1.91016 3.07812,-3.4961 3.07812,-5.21875 0,-1.56641 -0.93359,-2.75 -1.58594,-3.19532 -1.25781,-0.86328 -2.8164,-1.0039 -4.28515,-1.0039 -0.72266,0 -2.4961,0.0742 -3.28516,0.0742 -0.49219,0 -1.96094,-0.0742 -3.19531,-0.0742 -0.34766,0 -0.51172,0.0469 -0.51172,0.21094 0,0.16406 0.14063,0.21093 0.39453,0.21093 0.32813,0 0.72266,0.0234 0.91016,0.0703 0.76953,0.16015 0.95703,0.53515 1.0039,1.32812 0.0469,0.74609 0.0469,1.39844 0.0469,4.9375 z m 2.74609,-9.34375 c 0,-0.18359 0.0469,-0.27734 0.21094,-0.32422 0.23438,-0.0703 0.65234,-0.0937 1.23438,-0.0937 1.375,0 3.5664,0.95313 3.5664,4.26563 0,1.91016 -0.67578,2.98047 -1.375,3.49219 -0.41797,0.30468 -0.72265,0.39843 -1.65234,0.39843 -0.58203,0 -1.28125,-0.0703 -1.77344,-0.23437 -0.16406,-0.0664 -0.21094,-0.16406 -0.21094,-0.41797 z m 0,0"
         id="path51"
         inkscape:export-filename="E:\Kuba_praca\Github\path9.svg"
         inkscape:export-xdpi="96"
         inkscape:export-ydpi="96" />
      <path
         style="fill:#ffffff;fill-opacity:1;fill-rule:evenodd;stroke:none"
         d="m 361.75781,351.08203 c 1.23438,0 2.53906,-0.21094 3.70313,-0.95312 1.67968,-1.09766 2.1914,-2.70313 2.1914,-4.0586 0,-2.21094 -1.02734,-3.77344 -3.82422,-5.9414 l -0.65234,-0.48829 c -1.93359,-1.46484 -2.46875,-2.28515 -2.46875,-3.35546 0,-1.39844 1.05078,-2.39844 2.77344,-2.39844 1.51562,0 2.1914,0.69922 2.53906,1.14062 0.49219,0.60547 0.60547,1.32813 0.60547,1.53516 0,0.28125 0.0703,0.41797 0.23437,0.41797 0.1875,0 0.25782,-0.1836 0.25782,-0.69531 0,-1.81641 0.0898,-2.4961 0.0898,-2.79688 0,-0.16406 -0.11328,-0.23047 -0.32422,-0.27734 -0.60547,-0.16407 -1.58594,-0.39844 -3.10156,-0.39844 -3.23828,0 -5.37891,1.83984 -5.37891,4.40625 0,1.88281 0.88282,3.51562 3.44922,5.51953 l 1.07031,0.83984 c 1.9336,1.49219 2.28125,2.58594 2.28125,3.73047 0,1.23438 -1.02343,2.65625 -3.12109,2.65625 -1.44531,0 -2.82031,-0.6289 -3.33203,-2.35547 -0.11719,-0.39453 -0.21094,-0.88281 -0.21094,-1.1875 0,-0.1875 -0.0234,-0.39843 -0.23047,-0.39843 -0.1875,0 -0.25781,0.25781 -0.28125,0.60937 -0.0234,0.3711 -0.11718,1.76953 -0.11718,3.05469 0,0.50781 0.0703,0.625 0.44531,0.78906 1,0.44531 2.04687,0.60547 3.40234,0.60547"
         id="path53"
         inkscape:export-filename="E:\Kuba_praca\Github\path9.svg"
         inkscape:export-xdpi="96"
         inkscape:export-ydpi="96" />
      <path
         style="fill:#ffffff;fill-opacity:1;fill-rule:evenodd;stroke:none"
         d="m 378.25,346.63281 c 0,0.3711 0,1.35156 -0.0664,2.32813 -0.0469,0.67578 -0.25781,1.1914 -0.72265,1.28125 -0.21094,0.0469 -0.49219,0.0937 -0.81641,0.0937 -0.25781,0 -0.37109,0.0703 -0.37109,0.1875 0,0.18359 0.18359,0.23437 0.51172,0.23437 0.86328,0 2.32812,-0.0703 2.91015,-0.0703 0.62891,0 2.09766,0.0703 3.56641,0.0703 0.30469,0 0.48828,-0.0703 0.48828,-0.23437 0,-0.11719 -0.11719,-0.1875 -0.37109,-0.1875 -0.32813,0 -0.83985,-0.0469 -1.16407,-0.0937 -0.69922,-0.0899 -0.91015,-0.60547 -0.95703,-1.28125 -0.0703,-0.97657 -0.0703,-1.95703 -0.0703,-2.32813 v -1.91406 c 0,-0.76953 0,-1.48828 0.35156,-2.32813 0.41797,-1.0039 3.67969,-6.48046 4.44922,-7.41015 0.51172,-0.62891 0.76953,-0.91016 1.25781,-1.14063 0.35157,-0.1875 0.79297,-0.28125 1.02735,-0.28125 0.2539,0 0.4414,-0.0703 0.4414,-0.23437 0,-0.13672 -0.16406,-0.1875 -0.41797,-0.1875 -0.44531,0 -1.98046,0.0703 -2.49609,0.0703 -0.67578,0 -1.42187,-0.0703 -2.19141,-0.0703 -0.27734,0 -0.39453,0.0508 -0.39453,0.21094 0,0.14062 0.21094,0.1875 0.41797,0.23437 0.39844,0.0937 0.49219,0.35156 0.49219,0.58203 0,0.30469 -0.0937,0.69922 -0.32813,1.21094 -0.32421,0.72266 -3.26171,5.85156 -3.49609,6.40625 -0.37109,-0.64844 -3.63281,-6.26563 -3.96094,-6.96484 -0.16015,-0.32422 -0.27734,-0.60547 -0.27734,-0.79297 0,-0.1836 0.11719,-0.3711 0.32422,-0.41797 0.35156,-0.0937 0.51562,-0.11719 0.51562,-0.25781 0,-0.14063 -0.11718,-0.21094 -0.35156,-0.21094 -1.05078,0 -2.00391,0.0703 -2.49219,0.0703 -0.76953,0 -2.51953,-0.0703 -2.9375,-0.0703 -0.28125,0 -0.4414,0.0703 -0.4414,0.21094 0,0.16406 0.16015,0.21093 0.34765,0.21093 0.28125,0 0.67578,0.14063 0.98047,0.30078 0.44141,0.25782 1.02344,0.83985 1.60547,1.70313 0.81641,1.21094 3.9375,6.33984 4.10156,6.71094 0.30469,0.67578 0.53516,1.1914 0.53516,2.44531 z m 0,0"
         id="path55"
         inkscape:export-filename="E:\Kuba_praca\Github\path9.svg"
         inkscape:export-xdpi="96"
         inkscape:export-ydpi="96" />
      <path
         style="fill:#ffffff;fill-opacity:1;fill-rule:evenodd;stroke:none"
         d="m 396.80469,343.99609 c 0,2.14844 0,3.98438 -0.11719,4.96485 -0.0703,0.67578 -0.21094,1.1875 -0.67578,1.28125 -0.21094,0.0469 -0.48828,0.0937 -0.83985,0.0937 -0.27734,0 -0.37109,0.0703 -0.37109,0.1875 0,0.16015 0.16406,0.23437 0.46484,0.23437 0.9336,0 2.40235,-0.0742 2.9375,-0.0742 0.65235,0 2.1211,0.0742 3.65625,0.0742 0.25782,0 0.44532,-0.0742 0.44532,-0.23437 0,-0.11719 -0.11719,-0.1875 -0.375,-0.1875 -0.34766,0 -0.86328,-0.0469 -1.1875,-0.0937 -0.69922,-0.0937 -0.83985,-0.60547 -0.91016,-1.25782 -0.11719,-1.0039 -0.11719,-2.83984 -0.11719,-4.98828 v -9.55078 l 2.9375,0.0703 c 2.07422,0.043 2.70313,0.69922 2.75,1.30469 l 0.0234,0.25391 c 0.0234,0.35156 0.0703,0.46484 0.25781,0.46484 0.13672,0 0.1836,-0.13672 0.20703,-0.37109 0,-0.60547 0.0703,-2.21485 0.0703,-2.70313 0,-0.35156 -0.0234,-0.48828 -0.1836,-0.48828 -0.1875,0 -0.74609,0.23438 -2.23828,0.23438 h -9.23047 c -0.76562,0 -1.65234,-0.0508 -2.32812,-0.11719 -0.58203,-0.0469 -0.81641,-0.28125 -1.00391,-0.28125 -0.13672,0 -0.20703,0.14062 -0.27734,0.44531 -0.0469,0.1836 -0.48828,2.30469 -0.48828,2.67578 0,0.25782 0.0469,0.375 0.20703,0.375 0.14062,0 0.21094,-0.0937 0.25781,-0.28125 0.0469,-0.18359 0.16406,-0.46484 0.39453,-0.8125 0.35156,-0.51562 0.91016,-0.6289 2.26172,-0.67968 l 3.47266,-0.0899 z m 0,0"
         id="path57"
         inkscape:export-filename="E:\Kuba_praca\Github\path9.svg"
         inkscape:export-xdpi="96"
         inkscape:export-ydpi="96" />
      <path
         style="fill:#ffffff;fill-opacity:1;fill-rule:evenodd;stroke:none"
         d="m 412.69922,343.99609 c 0,2.14844 0,3.98438 -0.11328,4.96485 -0.0937,0.67578 -0.21094,1.1875 -0.67578,1.28125 -0.21094,0.0469 -0.49219,0.0937 -0.83985,0.0937 -0.28125,0 -0.375,0.0703 -0.375,0.1875 0,0.16015 0.16406,0.23437 0.46875,0.23437 0.92969,0 2.39844,-0.0742 2.9375,-0.0742 1.3711,0 2.9336,0.14063 6.44922,0.14063 0.89063,0 1.09766,0 1.26172,-0.60547 0.11719,-0.46484 0.30469,-2.05078 0.30469,-2.58594 0,-0.23437 0,-0.41797 -0.1875,-0.41797 -0.16407,0 -0.21094,0.0937 -0.25782,0.34766 -0.16406,0.95703 -0.4414,1.44531 -1.04687,1.72266 -0.60547,0.28125 -1.58594,0.28125 -2.19141,0.28125 -2.3789,0 -2.75,-0.34766 -2.79687,-1.95704 -0.0234,-0.67578 0,-2.82031 0,-3.61328 v -1.83984 c 0,-0.13672 0.0234,-0.23047 0.14062,-0.23047 0.5586,0 2.86719,0.0195 3.3086,0.0664 0.86328,0.0976 1.1875,0.44531 1.30468,0.91015 0.0703,0.30078 0.0703,0.60547 0.0937,0.83985 0,0.11718 0.0469,0.20703 0.21094,0.20703 0.20703,0 0.20703,-0.25391 0.20703,-0.44141 0,-0.16015 0.0469,-1.09375 0.0937,-1.5625 0.0703,-1.1875 0.1875,-1.55859 0.1875,-1.69922 0,-0.14062 -0.0703,-0.1875 -0.16406,-0.1875 -0.11719,0 -0.21094,0.11719 -0.375,0.30469 -0.20703,0.23438 -0.55859,0.30078 -1.11719,0.35156 -0.53515,0.043 -3.21484,0.043 -3.72656,0.043 -0.14062,0 -0.16406,-0.0937 -0.16406,-0.2539 v -5.89844 c 0,-0.16016 0.0469,-0.23047 0.16406,-0.23047 0.46484,0 2.91016,0.0469 3.30859,0.0937 1.16407,0.13672 1.39844,0.41797 1.5586,0.83984 0.11719,0.27735 0.14062,0.67188 0.14062,0.83594 0,0.21094 0.0469,0.32813 0.21094,0.32813 0.16406,0 0.21094,-0.14454 0.23438,-0.25782 0.043,-0.28125 0.0937,-1.30468 0.11328,-1.53906 0.0742,-1.07031 0.1914,-1.35156 0.1914,-1.51562 0,-0.11329 -0.0273,-0.20704 -0.14453,-0.20704 -0.11719,0 -0.2539,0.0664 -0.37109,0.0937 -0.1875,0.0469 -0.5586,0.0899 -1,0.13672 -0.44531,0.0274 -5.08203,0.0274 -5.82813,0.0274 -0.65234,0 -2.12109,-0.0742 -3.35547,-0.0742 -0.34765,0 -0.51171,0.0469 -0.51171,0.21094 0,0.16406 0.14062,0.21093 0.39453,0.21093 0.32812,0 0.72265,0.0234 0.91015,0.0703 0.76953,0.16015 0.95703,0.53515 1.00391,1.32812 0.043,0.74609 0.043,1.39844 0.043,4.9375 z m 0,0"
         id="path59"
         inkscape:export-filename="E:\Kuba_praca\Github\path9.svg"
         inkscape:export-xdpi="96"
         inkscape:export-ydpi="96" />
      <path
         style="fill:#ffffff;fill-opacity:1;fill-rule:evenodd;stroke:none"
         d="m 432.97266,343.99609 c 0,2.14844 0,3.98438 -0.11329,4.96485 -0.0703,0.67578 -0.21093,1.1875 -0.67578,1.28125 -0.21093,0.0469 -0.48828,0.0937 -0.83984,0.0937 -0.27734,0 -0.375,0.0703 -0.375,0.1875 0,0.16015 0.16406,0.23437 0.46875,0.23437 0.93359,0 2.39844,-0.0742 2.9375,-0.0742 0.65234,0 2.11719,0.0742 3.65625,0.0742 0.25781,0 0.44141,-0.0742 0.44141,-0.23437 0,-0.11719 -0.11329,-0.1875 -0.3711,-0.1875 -0.35156,0 -0.86328,-0.0469 -1.1875,-0.0937 -0.70312,-0.0937 -0.83984,-0.60547 -0.91015,-1.25782 -0.11719,-1.0039 -0.11719,-2.83984 -0.11719,-4.98828 v -9.55078 l 2.9375,0.0703 c 2.07422,0.043 2.70312,0.69922 2.75,1.30469 l 0.0234,0.25391 c 0.0234,0.35156 0.0664,0.46484 0.25781,0.46484 0.13672,0 0.18359,-0.13672 0.20703,-0.37109 0,-0.60547 0.0703,-2.21485 0.0703,-2.70313 0,-0.35156 -0.0234,-0.48828 -0.1875,-0.48828 -0.1875,0 -0.74219,0.23438 -2.23437,0.23438 h -9.23047 c -0.76953,0 -1.65235,-0.0508 -2.32813,-0.11719 -0.58203,-0.0469 -0.8164,-0.28125 -1,-0.28125 -0.14453,0 -0.21093,0.14062 -0.28125,0.44531 -0.0469,0.1836 -0.49218,2.30469 -0.49218,2.67578 0,0.25782 0.0469,0.375 0.21093,0.375 0.14063,0 0.20703,-0.0937 0.25782,-0.28125 0.0469,-0.18359 0.16015,-0.46484 0.39453,-0.8125 0.34765,-0.51562 0.91015,-0.6289 2.25781,-0.67968 l 3.47266,-0.0899 z m 0,0"
         id="path61"
         inkscape:export-filename="E:\Kuba_praca\Github\path9.svg"
         inkscape:export-xdpi="96"
         inkscape:export-ydpi="96" />
      <path
         style="fill:#ffffff;fill-opacity:1;fill-rule:evenodd;stroke:none"
         d="m 232.73047,453.17578 c -0.11719,0.79297 -0.30078,1.69922 -0.95313,1.83984 -0.35156,0.0703 -0.51562,0.0703 -0.69922,0.0703 -0.23437,0 -0.375,0.0469 -0.375,0.16406 0,0.21094 0.1875,0.25391 0.42188,0.25391 0.74219,0 1.86328,-0.0664 2.30469,-0.0664 0.41797,0 1.46875,0.0664 2.44531,0.0664 0.35156,0 0.5625,-0.043 0.5625,-0.25391 0,-0.11719 -0.16406,-0.16406 -0.35156,-0.16406 -0.23438,0 -0.5586,-0.0234 -0.97657,-0.11719 -0.39843,-0.0937 -0.69921,-0.30469 -0.69921,-0.74219 0,-0.375 0.0234,-0.67969 0.0703,-1.09765 l 1.21094,-9.27344 h 0.0937 c 0.8125,1.74609 2.21093,4.68359 2.42187,5.17187 0.28125,0.65235 2.12109,4.21875 2.67969,5.28907 0.37109,0.69921 0.60547,1.16796 0.8164,1.16796 0.21094,0 0.32422,-0.21093 0.86329,-1.30468 l 5.07812,-10.58203 h 0.0937 l 1.39844,10.2539 c 0.0937,0.65235 0.0234,0.95703 -0.11719,1.00391 -0.16406,0.0664 -0.25781,0.13672 -0.25781,0.2539 0,0.14063 0.14062,0.21094 0.67578,0.25782 0.93359,0.0703 4.14844,0.13672 4.73047,0.13672 0.32812,0 0.60937,-0.0664 0.60937,-0.25391 0,-0.14063 -0.16406,-0.16406 -0.375,-0.16406 -0.30468,0 -0.76953,-0.0234 -1.44531,-0.23047 -0.69922,-0.21094 -0.92969,-0.88672 -1.14062,-2.35547 l -2.1211,-14.39844 c -0.0703,-0.49219 -0.21094,-0.72656 -0.41797,-0.72656 -0.21093,0 -0.35156,0.1875 -0.51562,0.5625 l -6.33594,13.30469 -6.36328,-13.14063 c -0.30078,-0.60937 -0.44141,-0.72656 -0.62891,-0.72656 -0.1875,0 -0.32422,0.21094 -0.39453,0.60937 z m 0,0"
         id="path63"
         inkscape:export-filename="E:\Kuba_praca\Github\path9.svg"
         inkscape:export-xdpi="96"
         inkscape:export-ydpi="96" />
      <path
         style="fill:#ffffff;fill-opacity:1;fill-rule:evenodd;stroke:none"
         d="m 260.23437,448.75 c 0,2.14453 0,3.98047 -0.11718,4.96484 -0.0899,0.67188 -0.20703,1.1836 -0.67188,1.27735 -0.21094,0.0469 -0.49219,0.0937 -0.83984,0.0937 -0.28125,0 -0.3711,0.0703 -0.3711,0.18359 0,0.16797 0.16016,0.23828 0.46485,0.23828 0.92969,0 2.39844,-0.0703 2.93359,-0.0703 1.375,0 2.9375,0.13672 6.45703,0.13672 0.88282,0 1.09375,0 1.25782,-0.60547 0.11718,-0.46484 0.30078,-2.04688 0.30078,-2.58594 0,-0.23437 0,-0.41797 -0.1836,-0.41797 -0.16406,0 -0.21093,0.0937 -0.25781,0.34766 -0.16406,0.95703 -0.44141,1.44531 -1.04687,1.72266 -0.60547,0.28125 -1.58594,0.28125 -2.19141,0.28125 -2.375,0 -2.75,-0.34766 -2.79688,-1.95704 -0.0234,-0.67578 0,-2.82031 0,-3.60937 v -1.84375 c 0,-0.13672 0.0234,-0.23047 0.14063,-0.23047 0.55859,0 2.86719,0.0234 3.30859,0.0664 0.86328,0.0937 1.1875,0.44531 1.30469,0.91015 0.0703,0.30078 0.0703,0.60938 0.0937,0.83985 0,0.11328 0.0469,0.20703 0.21094,0.20703 0.20703,0 0.20703,-0.25391 0.20703,-0.4375 0,-0.16406 0.0469,-1.09766 0.0937,-1.5625 0.0703,-1.19141 0.1875,-1.5625 0.1875,-1.70313 0,-0.14062 -0.0703,-0.18359 -0.16406,-0.18359 -0.11719,0 -0.21094,0.11328 -0.3711,0.30078 -0.21093,0.23438 -0.5625,0.30078 -1.12109,0.35156 -0.53516,0.043 -3.21484,0.043 -3.72656,0.043 -0.14063,0 -0.16407,-0.0937 -0.16407,-0.2539 v -5.89844 c 0,-0.16406 0.0469,-0.23438 0.16407,-0.23438 0.46484,0 2.91406,0.0508 3.30859,0.0977 1.16406,0.13672 1.39844,0.41797 1.5625,0.83594 0.11328,0.28125 0.13672,0.67578 0.13672,0.83984 0,0.21094 0.0469,0.32813 0.21094,0.32813 0.16406,0 0.21093,-0.14063 0.23437,-0.25782 0.043,-0.27734 0.0899,-1.30468 0.11719,-1.53906 0.0664,-1.07031 0.18359,-1.35156 0.18359,-1.51562 0,-0.11329 -0.0234,-0.20704 -0.14062,-0.20704 -0.11719,0 -0.25391,0.0664 -0.3711,0.0937 -0.1875,0.0469 -0.55859,0.0937 -1.0039,0.14063 -0.44141,0.0234 -5.07813,0.0234 -5.82422,0.0234 -0.65234,0 -2.12109,-0.0703 -3.35547,-0.0703 -0.34766,0 -0.51172,0.0469 -0.51172,0.21094 0,0.16016 0.14063,0.20703 0.39453,0.20703 0.32813,0 0.72266,0.0234 0.91016,0.0703 0.76953,0.16015 0.95703,0.53515 1.00391,1.32812 0.043,0.74219 0.043,1.39844 0.043,4.9375 z m 0,0"
         id="path65"
         inkscape:export-filename="E:\Kuba_praca\Github\path9.svg"
         inkscape:export-xdpi="96"
         inkscape:export-ydpi="96" />
      <path
         style="fill:#ffffff;fill-opacity:1;fill-rule:evenodd;stroke:none"
         d="m 276.71094,448.75 c 0,2.14453 0,3.98047 -0.11719,4.96484 -0.0898,0.67188 -0.20703,1.1836 -0.67578,1.27735 -0.20703,0.0469 -0.48828,0.0937 -0.83594,0.0937 -0.28125,0 -0.375,0.0703 -0.375,0.18359 0,0.16797 0.16406,0.23828 0.46875,0.23828 0.92969,0 2.39844,-0.0703 2.93359,-0.0703 1.16407,0 3.26172,0.27734 4.96485,0.27734 4.30859,0 6.73437,-1.65234 7.80469,-2.75 1.30468,-1.32812 2.53906,-3.5625 2.53906,-6.5 0,-2.77343 -1.09375,-4.70703 -2.25781,-5.91797 -2.53907,-2.65625 -6.42969,-2.65625 -9.34375,-2.65625 -1.39844,0 -2.86719,0.0703 -3.58985,0.0703 -0.65234,0 -2.12109,-0.0703 -3.35547,-0.0703 -0.34765,0 -0.51172,0.0469 -0.51172,0.21094 0,0.16016 0.14063,0.20703 0.39454,0.20703 0.32812,0 0.72265,0.0234 0.91015,0.0703 0.76953,0.16015 0.95313,0.53515 1,1.32812 0.0469,0.74219 0.0469,1.39844 0.0469,4.9375 z m 2.91406,-4.47656 c 0,-1.83985 0,-3.86719 0.0234,-4.66016 0,-0.25781 0.0703,-0.375 0.28125,-0.46875 0.18359,-0.0898 1.04687,-0.16016 1.51172,-0.16016 1.82031,0 4.47656,0.28125 6.62109,2.32813 1,0.95703 2.23437,2.86719 2.23437,5.82812 0,2.39844 -0.46484,4.51954 -1.95703,5.80079 -1.39843,1.21093 -2.98047,1.67968 -5.35937,1.67968 -1.83985,0 -2.75,-0.48828 -3.05078,-0.93359 -0.1875,-0.25391 -0.23438,-1.1875 -0.25782,-1.76953 -0.0234,-0.44531 -0.0469,-2.23828 -0.0469,-4.70703 z m 0,0"
         id="path67"
         inkscape:export-filename="E:\Kuba_praca\Github\path9.svg"
         inkscape:export-xdpi="96"
         inkscape:export-ydpi="96" />
      <path
         style="fill:#ffffff;fill-opacity:1;fill-rule:evenodd;stroke:none"
         d="m 300.27344,448.75 c 0,2.25781 0,4.10156 -0.11719,5.07812 -0.0703,0.67579 -0.21094,1.07032 -0.67578,1.16407 -0.21094,0.0469 -0.49219,0.0937 -0.83985,0.0937 -0.28125,0 -0.37109,0.0703 -0.37109,0.18359 0,0.16797 0.16016,0.23828 0.46484,0.23828 0.92969,0 2.39844,-0.0703 2.9375,-0.0703 0.62891,0 2.09766,0.0703 3.63282,0.0703 0.25781,0 0.4414,-0.0703 0.4414,-0.23828 0,-0.11328 -0.11328,-0.18359 -0.37109,-0.18359 -0.35156,0 -0.86328,-0.0469 -1.1875,-0.0937 -0.69922,-0.0937 -0.86328,-0.51172 -0.93359,-1.14063 -0.0937,-1 -0.0937,-2.84375 -0.0937,-5.10156 v -4.10547 c 0,-3.53906 0,-4.19531 0.0469,-4.9375 0.0469,-0.81641 0.23438,-1.21094 0.86328,-1.32812 0.28125,-0.0469 0.46485,-0.0703 0.69922,-0.0703 0.23438,0 0.375,-0.0469 0.375,-0.23437 0,-0.13672 -0.1875,-0.1836 -0.49219,-0.1836 -0.88281,0 -2.25781,0.0703 -2.84375,0.0703 -0.67578,0 -2.14453,-0.0703 -3.02734,-0.0703 -0.375,0 -0.55859,0.0469 -0.55859,0.1836 0,0.1875 0.13671,0.23437 0.37109,0.23437 0.28125,0 0.58203,0.0234 0.83984,0.0937 0.51172,0.11719 0.7461,0.51172 0.79297,1.30469 0.0469,0.74219 0.0469,1.39844 0.0469,4.9375 z m 0,0"
         id="path69"
         inkscape:export-filename="E:\Kuba_praca\Github\path9.svg"
         inkscape:export-xdpi="96"
         inkscape:export-ydpi="96" />
      <path
         style="fill:#ffffff;fill-opacity:1;fill-rule:evenodd;stroke:none"
         d="m 320.89453,455.83203 c 1.49219,0 3.26172,-0.16406 4.19531,-0.53516 0.39453,-0.16406 0.48828,-0.28125 0.60547,-0.67578 0.23047,-0.79297 0.51172,-2.82031 0.51172,-3.10156 0,-0.18359 -0.0469,-0.34766 -0.21094,-0.34766 -0.18359,0 -0.23047,0.0937 -0.30078,0.46485 -0.0937,0.42187 -0.39844,1.09375 -0.79297,1.53906 -0.93359,1.07031 -2.1914,1.30469 -4.26562,1.30469 -3.1211,0 -7.33985,-2.75 -7.33985,-8.29688 0,-2.25781 0.44532,-4.47265 2.14454,-6.03515 1.02343,-0.92969 2.35156,-1.44141 4.38281,-1.44141 2.14062,0 3.96094,0.62891 4.73047,1.44141 0.58203,0.60937 0.88281,1.42187 0.90625,2.14453 0,0.32422 0.0469,0.51172 0.23437,0.51172 0.20703,0 0.25391,-0.1875 0.27735,-0.53516 0.0469,-0.46484 0.0234,-1.74609 0.0703,-2.51562 0.0469,-0.81641 0.11719,-1.09766 0.11719,-1.28125 0,-0.14063 -0.0937,-0.25782 -0.34766,-0.28125 -0.69922,-0.0703 -1.44531,-0.28125 -2.33203,-0.39454 -1.07031,-0.14062 -1.9336,-0.23437 -3.37891,-0.23437 -3.47265,0 -5.6875,0.93359 -7.36328,2.46875 -2.23828,2.05078 -2.72656,4.80469 -2.72656,6.38672 0,2.26172 0.60547,4.87109 2.89062,6.875 2.1211,1.83984 4.80078,2.53906 7.99219,2.53906"
         id="path71"
         inkscape:export-filename="E:\Kuba_praca\Github\path9.svg"
         inkscape:export-xdpi="96"
         inkscape:export-ydpi="96" />
      <path
         style="fill:#ffffff;fill-opacity:1;fill-rule:evenodd;stroke:none"
         d="m 331.94141,448.04687 c 0,3.38282 0.88671,5.10547 2.07421,6.17969 1.69922,1.53516 3.9375,1.60547 5.17188,1.60547 1.51562,0 3.19531,-0.25781 4.84766,-1.67969 1.95703,-1.67578 2.21484,-4.42578 2.21484,-7.01172 v -2.49218 c 0,-3.54297 0,-4.19922 0.0469,-4.94141 0.0469,-0.81641 0.23438,-1.21094 0.86329,-1.32812 0.27734,-0.0469 0.41796,-0.0703 0.67578,-0.0703 0.27734,0 0.41797,-0.0469 0.41797,-0.20703 0,-0.16406 -0.16407,-0.21094 -0.48829,-0.21094 -0.91015,0 -2.3789,0.0664 -2.66015,0.0664 -0.0195,0 -1.48828,-0.0664 -2.67969,-0.0664 -0.32422,0 -0.48828,0.0469 -0.48828,0.21094 0,0.16016 0.14062,0.20703 0.39844,0.20703 0.2539,0 0.65234,0.0234 0.83593,0.0703 0.76954,0.16015 0.95704,0.53515 1.00391,1.32812 0.0469,0.74219 0.0469,1.39844 0.0469,4.94141 v 2.91015 c 0,2.39844 -0.0703,4.5 -1.35157,5.78125 -0.93359,0.9336 -2.1914,1.25782 -3.21484,1.25782 -0.79297,0 -1.86719,-0.0937 -2.91406,-0.95704 -1.14453,-0.92968 -1.81641,-2.35156 -1.81641,-5.73437 v -3.25781 c 0,-3.54297 0,-4.19922 0.043,-4.94141 0.0469,-0.81641 0.23437,-1.21094 0.86328,-1.32812 0.28125,-0.0469 0.42188,-0.0703 0.67578,-0.0703 0.23438,0 0.375,-0.0469 0.375,-0.20703 0,-0.16406 -0.16406,-0.21094 -0.51562,-0.21094 -0.83594,0 -2.30469,0.0664 -2.86328,0.0664 -0.69922,0 -2.16797,-0.0664 -3.40235,-0.0664 -0.35156,0 -0.51562,0.0469 -0.51562,0.21094 0,0.16016 0.14062,0.20703 0.39843,0.20703 0.32422,0 0.72266,0.0234 0.91016,0.0703 0.76953,0.16015 0.95313,0.53515 1,1.32812 0.0469,0.74219 0.0469,1.39844 0.0469,4.94141 z m 0,0"
         id="path73"
         inkscape:export-filename="E:\Kuba_praca\Github\path9.svg"
         inkscape:export-xdpi="96"
         inkscape:export-ydpi="96" />
      <path
         style="fill:#ffffff;fill-opacity:1;fill-rule:evenodd;stroke:none"
         d="m 353.10156,453.17578 c -0.11719,0.79297 -0.30469,1.69922 -0.95703,1.83984 -0.34766,0.0703 -0.51172,0.0703 -0.69922,0.0703 -0.23437,0 -0.37109,0.0469 -0.37109,0.16406 0,0.21094 0.18359,0.25391 0.41797,0.25391 0.74609,0 1.86718,-0.0664 2.30859,-0.0664 0.41797,0 1.46875,0.0664 2.44531,0.0664 0.34766,0 0.5586,-0.043 0.5586,-0.25391 0,-0.11719 -0.16016,-0.16406 -0.34766,-0.16406 -0.23437,0 -0.55859,-0.0234 -0.98047,-0.11719 -0.39453,-0.0937 -0.69922,-0.30469 -0.69922,-0.74219 0,-0.375 0.0234,-0.67969 0.0703,-1.09765 l 1.21093,-9.27344 h 0.0937 c 0.81641,1.74609 2.21485,4.68359 2.42578,5.17187 0.27735,0.65235 2.1211,4.21875 2.67969,5.28907 0.3711,0.69921 0.60547,1.16796 0.81641,1.16796 0.20703,0 0.32422,-0.21093 0.85937,-1.30468 l 5.08203,-10.58203 h 0.0937 l 1.39454,10.2539 c 0.0937,0.65235 0.0273,0.95703 -0.11329,1.00391 -0.16406,0.0664 -0.25781,0.13672 -0.25781,0.2539 0,0.14063 0.14063,0.21094 0.67578,0.25782 0.9336,0.0703 4.14844,0.13672 4.73047,0.13672 0.32813,0 0.60547,-0.0664 0.60547,-0.25391 0,-0.14063 -0.16406,-0.16406 -0.37109,-0.16406 -0.30469,0 -0.76953,-0.0234 -1.44532,-0.23047 -0.69921,-0.21094 -0.93359,-0.88672 -1.14062,-2.35547 l -2.12109,-14.39844 c -0.0703,-0.49219 -0.21094,-0.72656 -0.42188,-0.72656 -0.20703,0 -0.34766,0.1875 -0.51172,0.5625 l -6.33984,13.30469 -6.35938,-13.14063 c -0.30468,-0.60937 -0.4414,-0.72656 -0.6289,-0.72656 -0.1875,0 -0.32813,0.21094 -0.39844,0.60937 z m 0,0"
         id="path75"
         inkscape:export-filename="E:\Kuba_praca\Github\path9.svg"
         inkscape:export-xdpi="96"
         inkscape:export-ydpi="96" />
      <path
         style="fill:#ffffff;fill-opacity:1;fill-rule:evenodd;stroke:none"
         d="m 243.38281,425.26953 c 1.49219,0 3.26172,-0.16406 4.19531,-0.53906 0.39454,-0.16016 0.48829,-0.27735 0.60547,-0.67578 0.23047,-0.79297 0.51172,-2.81641 0.51172,-3.09766 0,-0.1875 -0.0469,-0.34766 -0.20703,-0.34766 -0.1875,0 -0.23437,0.0899 -0.30469,0.46485 -0.0937,0.41797 -0.39843,1.09375 -0.79297,1.53906 -0.93359,1.07031 -2.1914,1.30469 -4.26562,1.30469 -3.12109,0 -7.33984,-2.75391 -7.33984,-8.29688 0,-2.26172 0.44531,-4.47265 2.14453,-6.03515 1.02734,-0.9336 2.35156,-1.44532 4.38281,-1.44532 2.14062,0 3.96094,0.62891 4.72656,1.44532 0.58594,0.60547 0.88672,1.42187 0.91016,2.14453 0,0.32422 0.0469,0.51172 0.23437,0.51172 0.21094,0 0.25782,-0.1875 0.27735,-0.53907 0.0469,-0.46484 0.0273,-1.74609 0.0703,-2.51171 0.0469,-0.81641 0.11719,-1.09766 0.11719,-1.28516 0,-0.13672 -0.0937,-0.25391 -0.34766,-0.28125 -0.69922,-0.0664 -1.44531,-0.27734 -2.33203,-0.39453 -1.0703,-0.14063 -1.93358,-0.23047 -3.3789,-0.23047 -3.47265,0 -5.68359,0.92969 -7.36328,2.46875 -2.23828,2.05078 -2.72656,4.80078 -2.72656,6.38672 0,2.25781 0.60547,4.86719 2.89062,6.87109 2.1211,1.84375 4.80079,2.54297 7.99219,2.54297"
         id="path77"
         inkscape:export-filename="E:\Kuba_praca\Github\path9.svg"
         inkscape:export-xdpi="96"
         inkscape:export-ydpi="96" />
      <path
         style="fill:#ffffff;fill-opacity:1;fill-rule:evenodd;stroke:none"
         d="m 262.28125,425.26953 c 5.92187,0 9.64844,-4.21875 9.64844,-9.55859 0,-5.33203 -3.61328,-8.71094 -9.41407,-8.71094 -6.99218,0 -9.625,5.14844 -9.625,9.13281 0,4.125 2.70313,9.13672 9.39063,9.13672 m 0.98047,-1.16797 c -4.47266,0 -7.15625,-3.84375 -7.15625,-8.6914 0,-5.80079 3.05469,-7.29297 5.73437,-7.29297 3.82422,0 6.82813,3.23828 6.82813,8.46093 0,6.73438 -3.77344,7.52344 -5.40625,7.52344"
         id="path79"
         inkscape:export-filename="E:\Kuba_praca\Github\path9.svg"
         inkscape:export-xdpi="96"
         inkscape:export-ydpi="96" />
      <path
         style="fill:#ffffff;fill-opacity:1;fill-rule:evenodd;stroke:none"
         d="m 281.69531,414.08203 c 0,-3.54297 0,-4.19531 0.0469,-4.94141 0.0469,-0.8125 0.23437,-1.21093 0.86328,-1.32812 0.27734,-0.043 0.65234,-0.0703 0.90625,-0.0703 0.28125,0 0.42187,-0.043 0.42187,-0.20703 0,-0.16407 -0.16406,-0.21094 -0.48828,-0.21094 -0.91015,0 -2.60937,0.0703 -3.17187,0.0703 -0.62891,0 -2.09766,-0.0703 -3.19141,-0.0703 -0.35156,0 -0.51172,0.0469 -0.51172,0.21094 0,0.16406 0.14063,0.20703 0.39453,0.20703 0.30469,0 0.58203,0.0273 0.76953,0.0703 0.76954,0.16406 0.95704,0.53906 1.00391,1.32812 0.0469,0.7461 0.0469,1.39844 0.0469,4.94141 v 4.10156 c 0,2.14453 0,3.98438 -0.11719,4.96485 -0.0937,0.67578 -0.21094,1.1875 -0.67578,1.28125 -0.21094,0.0469 -0.49219,0.0937 -0.83985,0.0937 -0.28125,0 -0.37109,0.0703 -0.37109,0.1875 0,0.16015 0.16016,0.23047 0.46484,0.23047 0.92969,0 2.39844,-0.0703 2.9336,-0.0703 1.89062,0 3.42578,0.14063 6.78125,0.14063 1.21484,0 1.33203,-0.11719 1.46875,-0.62891 0.1875,-0.67578 0.35156,-2.42578 0.35156,-2.68359 0,-0.27735 -0.0234,-0.39453 -0.1875,-0.39453 -0.1875,0 -0.23438,0.14062 -0.25781,0.35156 -0.043,0.44531 -0.32422,1.09766 -0.60547,1.39844 -0.58203,0.6289 -1.48828,0.65234 -2.72656,0.65234 -1.81641,0 -2.42188,-0.16406 -2.82032,-0.51172 -0.48828,-0.42187 -0.48828,-2.03125 -0.48828,-5.01172 z m 0,0"
         id="path81"
         inkscape:export-filename="E:\Kuba_praca\Github\path9.svg"
         inkscape:export-xdpi="96"
         inkscape:export-ydpi="96" />
      <path
         style="fill:#ffffff;fill-opacity:1;fill-rule:evenodd;stroke:none"
         d="m 297.54687,414.08203 c 0,-3.54297 0,-4.19531 0.0469,-4.94141 0.0469,-0.8125 0.23047,-1.21093 0.85937,-1.32812 0.28125,-0.043 0.65235,-0.0703 0.91016,-0.0703 0.28125,0 0.41797,-0.043 0.41797,-0.20703 0,-0.16407 -0.16016,-0.21094 -0.48828,-0.21094 -0.90625,0 -2.60938,0.0703 -3.16797,0.0703 -0.62891,0 -2.09766,-0.0703 -3.19141,-0.0703 -0.35156,0 -0.51562,0.0469 -0.51562,0.21094 0,0.16406 0.14062,0.20703 0.39844,0.20703 0.30078,0 0.58203,0.0273 0.76953,0.0703 0.76953,0.16406 0.95312,0.53906 1,1.32812 0.0469,0.7461 0.0469,1.39844 0.0469,4.94141 v 4.10156 c 0,2.14453 0,3.98438 -0.11719,4.96485 -0.0937,0.67578 -0.20703,1.1875 -0.67578,1.28125 -0.20703,0.0469 -0.48828,0.0937 -0.83984,0.0937 -0.27734,0 -0.37109,0.0703 -0.37109,0.1875 0,0.16015 0.16406,0.23047 0.46484,0.23047 0.93359,0 2.40234,-0.0703 2.9375,-0.0703 1.88672,0 3.42578,0.14063 6.78125,0.14063 1.21094,0 1.32812,-0.11719 1.46875,-0.62891 0.1875,-0.67578 0.34766,-2.42578 0.34766,-2.68359 0,-0.27735 -0.0234,-0.39453 -0.1875,-0.39453 -0.1836,0 -0.23047,0.14062 -0.25391,0.35156 -0.0469,0.44531 -0.32813,1.09766 -0.60547,1.39844 -0.58203,0.6289 -1.49219,0.65234 -2.72656,0.65234 -1.82031,0 -2.42188,-0.16406 -2.82031,-0.51172 -0.48829,-0.42187 -0.48829,-2.03125 -0.48829,-5.01172 z m 0,0"
         id="path83"
         inkscape:export-filename="E:\Kuba_praca\Github\path9.svg"
         inkscape:export-xdpi="96"
         inkscape:export-ydpi="96" />
      <path
         style="fill:#ffffff;fill-opacity:1;fill-rule:evenodd;stroke:none"
         d="m 310.48437,418.18359 c 0,2.14453 0,3.98438 -0.11718,4.96485 -0.0937,0.67578 -0.21094,1.1875 -0.67578,1.28125 -0.21094,0.043 -0.48829,0.0937 -0.83985,0.0937 -0.28125,0 -0.37109,0.0664 -0.37109,0.18359 0,0.16406 0.16406,0.23438 0.46484,0.23438 0.92969,0 2.39844,-0.0703 2.9375,-0.0703 1.375,0 2.9336,0.14063 6.45313,0.14063 0.88672,0 1.09765,0 1.25781,-0.60547 0.11719,-0.46484 0.30469,-2.05078 0.30469,-2.58594 0,-0.23828 0,-0.42187 -0.1875,-0.42187 -0.16407,0 -0.21094,0.0937 -0.25782,0.34765 -0.16406,0.96094 -0.4414,1.44922 -1.04687,1.72657 -0.60547,0.28125 -1.58594,0.28125 -2.19141,0.28125 -2.375,0 -2.75,-0.34766 -2.79687,-1.96094 -0.0234,-0.67188 0,-2.81641 0,-3.60938 v -1.84375 c 0,-0.13672 0.0234,-0.23047 0.14062,-0.23047 0.5586,0 2.86719,0.0234 3.3086,0.0703 0.86328,0.0937 1.1875,0.4414 1.30468,0.90625 0.0703,0.30468 0.0703,0.60937 0.0937,0.83984 0,0.11719 0.0469,0.21094 0.21094,0.21094 0.21094,0 0.21094,-0.25781 0.21094,-0.44141 0,-0.16406 0.0469,-1.09765 0.0898,-1.5625 0.0703,-1.1875 0.1875,-1.55859 0.1875,-1.70312 0,-0.13672 -0.0703,-0.1836 -0.16406,-0.1836 -0.11328,0 -0.20703,0.11719 -0.37109,0.30078 -0.21094,0.23438 -0.5586,0.30469 -1.11719,0.35157 -0.53906,0.0469 -3.21875,0.0469 -3.73047,0.0469 -0.14062,0 -0.16406,-0.0937 -0.16406,-0.25781 v -5.89453 c 0,-0.16406 0.0469,-0.23438 0.16406,-0.23438 0.46875,0 2.91406,0.0508 3.30859,0.0937 1.16407,0.14063 1.39844,0.42188 1.5625,0.83985 0.11719,0.28125 0.14063,0.67578 0.14063,0.83984 0,0.20703 0.0469,0.32422 0.20703,0.32422 0.16406,0 0.21094,-0.13672 0.23438,-0.25391 0.0469,-0.28125 0.0937,-1.30859 0.11718,-1.53906 0.0703,-1.07422 0.1875,-1.35156 0.1875,-1.51562 0,-0.11719 -0.0234,-0.21094 -0.14062,-0.21094 -0.11719,0 -0.25781,0.0703 -0.375,0.0937 -0.1836,0.0508 -0.5586,0.0937 -1,0.14062 -0.44531,0.0234 -5.08203,0.0234 -5.82813,0.0234 -0.65234,0 -2.12109,-0.0703 -3.35156,-0.0703 -0.35156,0 -0.51562,0.0469 -0.51562,0.21094 0,0.16406 0.14062,0.21093 0.39843,0.21093 0.32422,0 0.71875,0.0234 0.90625,0.0703 0.76953,0.16015 0.95703,0.53125 1.00391,1.32421 0.0469,0.7461 0.0469,1.39844 0.0469,4.94141 z m 0,0"
         id="path85"
         inkscape:export-filename="E:\Kuba_praca\Github\path9.svg"
         inkscape:export-xdpi="96"
         inkscape:export-ydpi="96" />
      <path
         style="fill:#ffffff;fill-opacity:1;fill-rule:evenodd;stroke:none"
         d="m 341.10547,420.81641 c 0,-1.16407 0,-2.09766 0.0234,-2.79688 0.0195,-0.8125 0.2539,-1.21094 0.88281,-1.32812 0.28125,-0.0469 0.44531,-0.0703 0.63281,-0.0703 0.16016,0 0.30078,-0.043 0.30078,-0.1875 0,-0.18359 -0.16406,-0.23047 -0.46484,-0.23047 -0.76953,0 -2.00391,0.0703 -2.72656,0.0703 -0.69922,0 -2.16797,-0.0703 -3.37891,-0.0703 -0.32813,0 -0.49219,0.0469 -0.49219,0.23047 0,0.14453 0.14063,0.1875 0.35156,0.1875 0.32422,0 0.72266,0.0234 0.90625,0.0703 0.76954,0.16406 0.98047,0.53515 1.00391,1.32812 0.0234,0.69922 0.0234,1.58594 0.0234,2.75 v 2.19141 c 0,0.39453 -0.0937,0.69922 -0.44141,0.86328 -0.5625,0.2539 -1.375,0.2539 -1.98047,0.2539 -4.91797,0 -8.10937,-3.75 -8.10937,-8.76171 0,-2.86329 0.83984,-4.61329 2.14062,-5.70704 1.63282,-1.35546 3.33203,-1.44531 4.61719,-1.44531 2.62891,0 4.49609,1.07031 5.19531,1.81641 0.60547,0.65234 0.72266,1.39844 0.79297,1.9375 0.0234,0.18359 0.0703,0.30078 0.23047,0.30078 0.1875,0 0.25781,-0.11719 0.25781,-0.49219 0,-2.91015 0.16407,-3.5625 0.16407,-3.82031 0,-0.16016 -0.0469,-0.25391 -0.32813,-0.27734 -0.53516,-0.0234 -1.35156,-0.16407 -1.83984,-0.25782 -0.46485,-0.0898 -2.51563,-0.37109 -4.125,-0.37109 -1.95703,0 -4.03125,0.16406 -6.26563,1.51172 -2.125,1.28125 -4.05859,3.89453 -4.05859,7.62109 0,6.42969 5.05859,9.13281 10.76562,9.13281 1.82032,0 4.10157,-0.2539 5.61719,-1.04687 0.28125,-0.16406 0.30469,-0.21094 0.30469,-0.83984 z m 0,0"
         id="path87"
         inkscape:export-filename="E:\Kuba_praca\Github\path9.svg"
         inkscape:export-xdpi="96"
         inkscape:export-ydpi="96" />
      <path
         style="fill:#ffffff;fill-opacity:1;fill-rule:evenodd;stroke:none"
         d="m 349.35937,418.18359 c 0,2.26172 0,4.10157 -0.11718,5.07813 -0.0703,0.67969 -0.21094,1.07422 -0.67578,1.16797 -0.21094,0.043 -0.49219,0.0937 -0.83985,0.0937 -0.28125,0 -0.37109,0.0664 -0.37109,0.18359 0,0.16406 0.16406,0.23438 0.46484,0.23438 0.92969,0 2.39844,-0.0703 2.9375,-0.0703 0.62891,0 2.09766,0.0703 3.63281,0.0703 0.25782,0 0.44141,-0.0703 0.44141,-0.23438 0,-0.11719 -0.11328,-0.18359 -0.37109,-0.18359 -0.35157,0 -0.86328,-0.0508 -1.1875,-0.0937 -0.69922,-0.0937 -0.86328,-0.51172 -0.9336,-1.14063 -0.0937,-1.0039 -0.0937,-2.84375 -0.0937,-5.10547 v -4.10156 c 0,-3.54297 0,-4.19531 0.0469,-4.94141 0.0469,-0.8125 0.23437,-1.21093 0.86328,-1.32421 0.28125,-0.0469 0.46484,-0.0703 0.69922,-0.0703 0.23437,0 0.37109,-0.0469 0.37109,-0.23437 0,-0.14063 -0.18359,-0.1875 -0.48828,-0.1875 -0.88281,0 -2.25781,0.0703 -2.83984,0.0703 -0.67969,0 -2.14844,-0.0703 -3.03125,-0.0703 -0.375,0 -0.5586,0.0469 -0.5586,0.1875 0,0.1875 0.13672,0.23437 0.3711,0.23437 0.28125,0 0.58203,0.0234 0.83984,0.0899 0.51172,0.11718 0.74609,0.51172 0.79297,1.30468 0.0469,0.7461 0.0469,1.39844 0.0469,4.94141 z m 0,0"
         id="path89"
         inkscape:export-filename="E:\Kuba_praca\Github\path9.svg"
         inkscape:export-xdpi="96"
         inkscape:export-ydpi="96" />
      <path
         style="fill:#ffffff;fill-opacity:1;fill-rule:evenodd;stroke:none"
         d="m 360.63672,417.48437 c 0,3.37891 0.88281,5.10547 2.07422,6.17579 1.69922,1.53906 3.9375,1.60546 5.17187,1.60546 1.51563,0 3.19141,-0.2539 4.84766,-1.67578 1.95703,-1.67578 2.21484,-4.42578 2.21484,-7.01172 v -2.49609 c 0,-3.53906 0,-4.19531 0.043,-4.94141 0.0469,-0.8125 0.23438,-1.21093 0.86328,-1.32812 0.28125,-0.0469 0.42188,-0.0664 0.67578,-0.0664 0.28125,0 0.42188,-0.0469 0.42188,-0.21093 0,-0.16407 -0.16406,-0.21094 -0.49219,-0.21094 -0.90625,0 -2.375,0.0703 -2.65625,0.0703 -0.0234,0 -1.49219,-0.0703 -2.67969,-0.0703 -0.32422,0 -0.48828,0.0469 -0.48828,0.21094 0,0.16406 0.14063,0.21093 0.39453,0.21093 0.25782,0 0.65235,0.0195 0.83985,0.0664 0.76953,0.16406 0.95703,0.53516 1.0039,1.32812 0.043,0.7461 0.043,1.40235 0.043,4.94141 v 2.91406 c 0,2.39844 -0.0703,4.4961 -1.34765,5.77735 -0.9336,0.93359 -2.19141,1.26172 -3.21875,1.26172 -0.79297,0 -1.86329,-0.0977 -2.91016,-0.95704 -1.14453,-0.93359 -1.82031,-2.35546 -1.82031,-5.73437 v -3.26172 c 0,-3.53906 0,-4.19531 0.0469,-4.94141 0.0469,-0.8125 0.23438,-1.21093 0.86328,-1.32812 0.28125,-0.0469 0.41797,-0.0664 0.67578,-0.0664 0.23438,0 0.3711,-0.0469 0.3711,-0.21093 0,-0.16407 -0.16016,-0.21094 -0.51172,-0.21094 -0.83594,0 -2.30469,0.0703 -2.86719,0.0703 -0.69922,0 -2.16406,-0.0703 -3.40234,-0.0703 -0.34766,0 -0.51172,0.0469 -0.51172,0.21094 0,0.16406 0.14062,0.21093 0.39453,0.21093 0.32813,0 0.72656,0.0195 0.91016,0.0664 0.76953,0.16406 0.95703,0.53516 1.0039,1.32812 0.0469,0.7461 0.0469,1.40235 0.0469,4.94141 z m 0,0"
         id="path91"
         inkscape:export-filename="E:\Kuba_praca\Github\path9.svg"
         inkscape:export-xdpi="96"
         inkscape:export-ydpi="96" />
      <path
         style="fill:#ffffff;fill-opacity:1;fill-rule:evenodd;stroke:none"
         d="m 381.79297,422.60937 c -0.11328,0.79688 -0.30078,1.70313 -0.95313,1.84375 -0.35156,0.0703 -0.51172,0.0703 -0.69922,0.0703 -0.23437,0 -0.37109,0.043 -0.37109,0.16015 0,0.21094 0.18359,0.25782 0.41797,0.25782 0.74609,0 1.86328,-0.0703 2.30469,-0.0703 0.42187,0 1.46875,0.0703 2.44922,0.0703 0.34765,0 0.55859,-0.0469 0.55859,-0.25782 0,-0.11718 -0.16406,-0.16015 -0.34766,-0.16015 -0.23437,0 -0.5625,-0.0234 -0.98047,-0.11719 -0.39843,-0.0937 -0.69921,-0.30469 -0.69921,-0.74609 0,-0.3711 0.0234,-0.67579 0.0703,-1.09766 l 1.21094,-9.26953 h 0.0937 c 0.8164,1.74609 2.21484,4.67969 2.42187,5.17187 0.28125,0.65235 2.12109,4.21485 2.67969,5.28907 0.375,0.69921 0.60937,1.16406 0.8164,1.16406 0.21094,0 0.32813,-0.20703 0.86329,-1.30469 l 5.07812,-10.57812 h 0.0937 l 1.39844,10.2539 c 0.0937,0.64844 0.0234,0.95313 -0.11719,1 -0.16406,0.0703 -0.25391,0.14063 -0.25391,0.25781 0,0.13672 0.14063,0.21094 0.67579,0.25391 0.92968,0.0703 4.14453,0.14063 4.73046,0.14063 0.32422,0 0.60547,-0.0703 0.60547,-0.25782 0,-0.13672 -0.16406,-0.16015 -0.375,-0.16015 -0.30078,0 -0.76953,-0.0234 -1.4414,-0.23438 -0.69922,-0.21094 -0.9336,-0.88281 -1.14453,-2.35547 l -2.1211,-14.39843 c -0.0703,-0.48829 -0.20703,-0.72266 -0.41797,-0.72266 -0.21093,0 -0.35156,0.1875 -0.51172,0.55859 l -6.33984,13.30469 -6.36328,-13.14062 c -0.30078,-0.60547 -0.44141,-0.72266 -0.62891,-0.72266 -0.18359,0 -0.32422,0.20703 -0.39453,0.60547 z m 0,0"
         id="path93"
         inkscape:export-filename="E:\Kuba_praca\Github\path9.svg"
         inkscape:export-xdpi="96"
         inkscape:export-ydpi="96" />
    </g>
  </g>
</svg>
